<?xml version="1.0" encoding="UTF-8"?>
<svg id="Layer_1" xmlns="http://www.w3.org/2000/svg" version="1.1" xmlns:xlink="http://www.w3.org/1999/xlink" viewBox="0 0 1366 768">
  <!-- Generator: Adobe Illustrator 29.8.1, SVG Export Plug-In . SVG Version: 2.1.1 Build 2)  -->
  <defs>
    <style>
      .st0 {
        fill: url(#linear-gradient1);
      }

      .st0, .st1, .st2, .st3, .st4, .st5, .st6, .st7, .st8 {
        isolation: isolate;
      }

      .st0, .st4, .st7, .st8 {
        opacity: .6;
      }

      .st9 {
        fill: #f9db26;
      }

      .st1 {
        fill: url(#linear-gradient5);
      }

      .st1, .st3, .st5, .st6 {
        mix-blend-mode: darken;
        opacity: .8;
      }

      .st10 {
        fill: #92ff64;
      }

      .st11 {
        fill: #0071bc;
      }

      .st12 {
        fill: #4d4d4d;
      }

      .st13 {
        stroke: #999;
      }

      .st13, .st14, .st15, .st16, .st17, .st18, .st19 {
        stroke-miterlimit: 10;
      }

      .st13, .st14, .st16, .st17, .st20, .st18, .st19 {
        fill: none;
      }

      .st13, .st15, .st20, .st19 {
        stroke-width: .25px;
      }

      .st21 {
        fill: #fff;
      }

      .st22 {
        fill: #ce2929;
      }

      .st23 {
        fill: #3fa9f5;
      }

      .st14, .st15, .st16, .st18, .st19 {
        stroke: #fff;
      }

      .st14, .st18 {
        stroke-width: .5px;
      }

      .st24 {
        fill: #f66;
      }

      .st15, .st25 {
        fill: #333;
      }

      .st16 {
        stroke-width: .75px;
      }

      .st26 {
        fill: #ffee52;
      }

      .st17 {
        stroke: #ce2929;
      }

      .st27 {
        fill: #666;
      }

      .st3 {
        fill: url(#linear-gradient6);
      }

      .st4 {
        fill: url(#linear-gradient2);
      }

      .st20 {
        stroke: #333;
        stroke-linejoin: round;
      }

      .st28 {
        fill: #ff931e;
      }

      .st5 {
        fill: url(#linear-gradient7);
      }

      .st29 {
        fill: #999;
      }

      .st6 {
        fill: url(#linear-gradient4);
      }

      .st30 {
        fill: #ccc;
      }

      .st31 {
        fill: #f4f4f4;
      }

      .st7 {
        fill: url(#linear-gradient);
      }

      .st18 {
        stroke-dasharray: 2 2;
      }

      .st8 {
        fill: url(#linear-gradient3);
      }

      .st32 {
        fill: #e6e6e6;
      }
    </style>
    <linearGradient id="linear-gradient" x1="321.91" y1="273.51" x2="321.91" y2="292.52" gradientTransform="translate(0 768) scale(1 -1)" gradientUnits="userSpaceOnUse">
      <stop offset="0" stop-color="#f66"/>
      <stop offset="1" stop-color="#fff" stop-opacity="0"/>
    </linearGradient>
    <linearGradient id="linear-gradient1" x1="42.03" y1="220.95" x2="42.03" y2="239.96" gradientTransform="translate(355.7 299.71) rotate(-180) scale(1 -1)" gradientUnits="userSpaceOnUse">
      <stop offset="0" stop-color="#f66"/>
      <stop offset="1" stop-color="#fff" stop-opacity="0"/>
    </linearGradient>
    <linearGradient id="linear-gradient2" x1="148.81" y1="220.95" x2="148.81" y2="239.96" gradientTransform="translate(355.7 299.71) rotate(-180) scale(1 -1)" gradientUnits="userSpaceOnUse">
      <stop offset="0" stop-color="#92ff64"/>
      <stop offset="1" stop-color="#fff" stop-opacity="0"/>
    </linearGradient>
    <linearGradient id="linear-gradient3" x1="421.55" y1="246.53" x2="421.55" y2="227.78" gradientTransform="translate(0 768) scale(1 -1)" gradientUnits="userSpaceOnUse">
      <stop offset="0" stop-color="#92ff64"/>
      <stop offset="1" stop-color="#fff" stop-opacity="0"/>
    </linearGradient>
    <linearGradient id="linear-gradient4" x1="54.43" y1="239.64" x2="54.43" y2="252.88" gradientTransform="translate(271.65 760.61) scale(1 -1)" gradientUnits="userSpaceOnUse">
      <stop offset="0" stop-color="#f66"/>
      <stop offset=".16" stop-color="#ff6767" stop-opacity=".99"/>
      <stop offset=".29" stop-color="#ff6d6d" stop-opacity=".95"/>
      <stop offset=".41" stop-color="#f77" stop-opacity=".88"/>
      <stop offset=".53" stop-color="#ff8686" stop-opacity=".79"/>
      <stop offset=".63" stop-color="#ff9898" stop-opacity=".67"/>
      <stop offset=".74" stop-color="#ffafaf" stop-opacity=".52"/>
      <stop offset=".84" stop-color="#ffcaca" stop-opacity=".35"/>
      <stop offset=".94" stop-color="#ffe8e8" stop-opacity=".15"/>
      <stop offset="1" stop-color="#fff" stop-opacity="0"/>
    </linearGradient>
    <linearGradient id="linear-gradient5" x1="170.96" y1="239.64" x2="170.96" y2="252.88" gradientTransform="translate(271.65 760.61) scale(1 -1)" gradientUnits="userSpaceOnUse">
      <stop offset="0" stop-color="#92ff64"/>
      <stop offset=".17" stop-color="#93ff65" stop-opacity=".99"/>
      <stop offset=".3" stop-color="#97ff6b" stop-opacity=".95"/>
      <stop offset=".42" stop-color="#9eff76" stop-opacity=".88"/>
      <stop offset=".53" stop-color="#a8ff84" stop-opacity=".79"/>
      <stop offset=".63" stop-color="#b5ff96" stop-opacity=".67"/>
      <stop offset=".74" stop-color="#c5ffad" stop-opacity=".53"/>
      <stop offset=".84" stop-color="#d8ffc8" stop-opacity=".35"/>
      <stop offset=".93" stop-color="#eeffe6" stop-opacity=".16"/>
      <stop offset="1" stop-color="#fff" stop-opacity="0"/>
    </linearGradient>
    <linearGradient id="linear-gradient6" x1="-57.77" y1="239.64" x2="-57.77" y2="252.88" gradientTransform="translate(271.65 760.61) scale(1 -1)" gradientUnits="userSpaceOnUse">
      <stop offset="0" stop-color="#92ff64"/>
      <stop offset=".16" stop-color="#93ff65" stop-opacity=".99"/>
      <stop offset=".29" stop-color="#97ff6c" stop-opacity=".95"/>
      <stop offset=".41" stop-color="#9eff76" stop-opacity=".88"/>
      <stop offset=".52" stop-color="#a9ff84" stop-opacity=".79"/>
      <stop offset=".63" stop-color="#b6ff97" stop-opacity=".67"/>
      <stop offset=".74" stop-color="#c6ffae" stop-opacity=".52"/>
      <stop offset=".84" stop-color="#d9ffca" stop-opacity=".34"/>
      <stop offset=".94" stop-color="#efffe9" stop-opacity=".14"/>
      <stop offset="1" stop-color="#fff" stop-opacity="0"/>
    </linearGradient>
    <linearGradient id="linear-gradient7" x1="73.47" y1="258.13" x2="73.47" y2="271.44" gradientTransform="translate(392.65 236.25) rotate(-180) scale(1 -1)" gradientUnits="userSpaceOnUse">
      <stop offset="0" stop-color="#f66"/>
      <stop offset=".16" stop-color="#ff6767" stop-opacity=".99"/>
      <stop offset=".29" stop-color="#ff6d6d" stop-opacity=".95"/>
      <stop offset=".41" stop-color="#f77" stop-opacity=".88"/>
      <stop offset=".53" stop-color="#ff8686" stop-opacity=".79"/>
      <stop offset=".63" stop-color="#ff9898" stop-opacity=".67"/>
      <stop offset=".74" stop-color="#ffafaf" stop-opacity=".52"/>
      <stop offset=".84" stop-color="#ffcaca" stop-opacity=".35"/>
      <stop offset=".94" stop-color="#ffe8e8" stop-opacity=".15"/>
      <stop offset="1" stop-color="#fff" stop-opacity="0"/>
    </linearGradient>
  </defs>
  <g class="st2">
    <g id="stops">
      <rect class="st7" x="147.99" y="475.48" width="347.84" height="19.01"/>
      <rect class="st0" x="307.31" y="520.66" width="12.73" height="19.01"/>
      <rect class="st4" x="106.47" y="520.66" width="200.83" height="19.01"/>
      <rect class="st8" x="320.04" y="498.02" width="203.03" height="41.64"/>
    </g>
    <g id="outline">
      <path class="st30" d="M125.28,259.93v234.29l-33.74,21.25v40.63l46.75-35.24h352.72c17.22,0,31.18-13.96,31.18-31.18v-187.97h606.52v-41.78H125.28ZM475.47,494.38H150.12v-192.67h338.11v179.91c0,7.05-5.71,12.76-12.76,12.76h0Z"/>
      <rect class="st30" x="518.87" y="484.58" width="119.81" height="13.44"/>
      <rect class="st30" x="631.05" y="165.86" width="15.78" height="355.11"/>
      <rect class="st30" x="595.37" y="73.03" width="220.61" height="18.88"/>
      <rect class="st30" x="640.31" y="164.26" width="98.93" height="13.77"/>
      <rect class="st30" x="614.96" y="213.48" width="30.66" height="8.16"/>
      <rect class="st30" x="587.47" y="217.33" width="15.21" height="42.68"/>
      <rect class="st30" x="324.95" y="459.98" width="9.47" height="38.45"/>
      <rect class="st30" x="350.54" y="459.98" width="9.47" height="38.45"/>
      <rect class="st30" x="312.31" y="452.26" width="59.19" height="27.86"/>
      <rect class="st30" x="188.26" y="295.39" width="11.52" height="19.15"/>
      <rect class="st30" x="211.15" y="295.39" width="11.52" height="19.15"/>
      <rect class="st30" x="234.04" y="295.39" width="11.52" height="19.15"/>
      <rect class="st30" x="256.93" y="295.39" width="11.52" height="19.15"/>
      <rect class="st30" x="279.82" y="295.39" width="11.52" height="19.15"/>
      <rect class="st30" x="302.71" y="295.39" width="11.52" height="19.15"/>
      <rect class="st30" x="325.61" y="295.39" width="11.52" height="19.15"/>
      <polygon class="st30" points="650.49 173.73 633.21 181.77 582.65 73.03 603.67 73.03 650.49 173.73"/>
      <polygon class="st30" points="612.77 137.29 595.49 145.32 583.33 119.17 600.51 110.92 612.77 137.29"/>
      <rect class="st30" x="739.96" y="56.32" width="31.68" height="19.87"/>
      <rect class="st30" x="1146.29" y="78" width="45.79" height="103.49" transform="translate(-7.17 134.01) rotate(-6.54)"/>
      <rect class="st30" x="1052.42" y="186.14" width="227.28" height="78.16" transform="translate(210.75 930.78) rotate(-47.38)"/>
      <rect class="st30" x="1162.91" y="236.36" width="25" height="137.69" transform="translate(535.56 1337.35) rotate(-72.76)"/>
      <rect class="st30" x="1119.68" y="18.82" width="45.79" height="91.14" transform="translate(218.33 739.22) rotate(-39.36)"/>
      <rect class="st30" x="917.89" y="299.13" width="18.82" height="41.42"/>
      <rect class="st30" x="631.66" y="323.67" width="120.99" height="7.79" transform="translate(-69.65 405.27) rotate(-31.15)"/>
      <rect class="st30" x="519.88" y="392.3" width="116.35" height="14.02"/>
      <rect class="st30" x="551.34" y="347.68" width="62.42" height="40.54"/>
      <rect class="st30" x="573.25" y="382.89" width="9.65" height="11.16"/>
      <rect class="st30" x="126.14" y="201.85" width="16.68" height="61.63"/>
      <rect class="st30" x="88.2" y="260.05" width="41.76" height="41.76"/>
      <rect class="st30" x="148.8" y="334.94" width="13.91" height="23.88"/>
      <rect class="st30" x="485.93" y="232.77" width="11.92" height="28.12"/>
      <polygon class="st30" points="192.03 249.56 142.05 249.56 142.05 260 202.48 260 192.03 249.56"/>
    </g>
    <g id="road-lines-1">
      <g>
        <line class="st14" x1="155.17" y1="499.89" x2="156.17" y2="499.89"/>
        <path class="st18" d="M158.16,499.89h320.51c9.39,0,17.01-7.61,17.01-17v-163.65"/>
        <line class="st14" x1="495.68" y1="318.23" x2="495.68" y2="317.23"/>
      </g>
      <path class="st18" d="M152.37,516.61h334.46c16.37,0,29.64-13.27,29.64-29.64v-164.21"/>
      <line class="st18" x1="522.89" y1="399.56" x2="632.14" y2="399.56"/>
      <line class="st18" x1="638.94" y1="374.41" x2="638.94" y2="316.95"/>
      <line class="st18" x1="638.94" y1="519.43" x2="638.94" y2="432.41"/>
      <line class="st18" x1="526.85" y1="292.53" x2="1080.58" y2="292.53"/>
      <polyline class="st18" points="556.57 267.86 1068.62 267.86 1084.27 263.01"/>
      <line class="st18" x1="367" y1="291.34" x2="488.84" y2="291.34"/>
      <line class="st18" x1="174.05" y1="291.34" x2="347.49" y2="291.34"/>
      <line class="st18" x1="370.7" y1="270.45" x2="488.84" y2="270.45"/>
      <line class="st18" x1="174.05" y1="270.45" x2="347.78" y2="270.45"/>
      <line class="st18" x1="137.7" y1="324.87" x2="137.7" y2="460.38"/>
    </g>
    <g id="road-lines-2">
      <line class="st14" x1="608.76" y1="399.56" x2="631.05" y2="399.56"/>
      <line class="st14" x1="579" y1="399.56" x2="597.77" y2="399.56"/>
      <line class="st14" x1="523.16" y1="399.56" x2="541.94" y2="399.56"/>
      <line class="st14" x1="509.89" y1="322.76" x2="523.05" y2="322.76"/>
      <line class="st14" x1="638.94" y1="317.19" x2="647.13" y2="317.19"/>
      <line class="st14" x1="638.94" y1="406.47" x2="638.94" y2="413.31"/>
      <line class="st14" x1="638.94" y1="373.63" x2="638.94" y2="380.47"/>
      <line class="st14" x1="638.94" y1="431.74" x2="638.94" y2="440.25"/>
      <line class="st14" x1="638.94" y1="453.75" x2="638.94" y2="479.26"/>
      <line class="st14" x1="178.45" y1="504.11" x2="178.45" y2="494.45"/>
      <line class="st14" x1="556.57" y1="260" x2="556.57" y2="275.56"/>
      <line class="st14" x1="535.51" y1="292.53" x2="527.02" y2="292.53"/>
      <line class="st16" x1="370.7" y1="281.89" x2="489.09" y2="281.89"/>
      <line class="st16" x1="336.05" y1="281.89" x2="348" y2="281.89"/>
      <line class="st16" x1="313.15" y1="281.89" x2="326.06" y2="281.89"/>
      <line class="st16" x1="290.26" y1="281.89" x2="303.17" y2="281.89"/>
      <line class="st16" x1="267.37" y1="281.89" x2="280.28" y2="281.89"/>
      <line class="st16" x1="244.48" y1="281.89" x2="257.39" y2="281.89"/>
      <line class="st16" x1="221.59" y1="281.89" x2="234.5" y2="281.89"/>
      <line class="st16" x1="198.7" y1="281.89" x2="211.61" y2="281.89"/>
      <line class="st16" x1="174.05" y1="281.89" x2="188.71" y2="281.89"/>
      <line class="st16" x1="336.05" y1="279.89" x2="348" y2="279.89"/>
      <line class="st16" x1="313.15" y1="279.89" x2="326.06" y2="279.89"/>
      <line class="st16" x1="290.26" y1="279.89" x2="303.17" y2="279.89"/>
      <line class="st16" x1="267.37" y1="279.89" x2="280.28" y2="279.89"/>
      <line class="st16" x1="244.48" y1="279.89" x2="257.39" y2="279.89"/>
      <line class="st16" x1="221.59" y1="279.89" x2="234.5" y2="279.89"/>
      <line class="st16" x1="198.7" y1="279.89" x2="211.61" y2="279.89"/>
      <line class="st16" x1="174.05" y1="279.89" x2="188.71" y2="279.89"/>
      <line class="st16" x1="370.46" y1="279.89" x2="489.09" y2="279.89"/>
      <line class="st14" x1="488.84" y1="301.78" x2="488.84" y2="282.05"/>
      <line class="st14" x1="471.59" y1="291.34" x2="488.84" y2="291.34"/>
      <line class="st14" x1="174.32" y1="280.07" x2="174.32" y2="249.56"/>
      <line class="st14" x1="347.78" y1="301.97" x2="347.78" y2="281.89"/>
      <line class="st14" x1="370.7" y1="280.01" x2="370.7" y2="259.93"/>
      <line class="st14" x1="190.95" y1="270.45" x2="175.14" y2="270.45"/>
      <line class="st14" x1="370.7" y1="270.45" x2="390.77" y2="270.45"/>
      <line class="st14" x1="327.41" y1="291.34" x2="347.49" y2="291.34"/>
      <polyline class="st14" points="137.7 446.3 137.7 460.38 125.28 460.38"/>
      <polyline class="st14" points="137.7 388.72 137.7 402.8 125.28 402.8"/>
      <line class="st14" x1="137.7" y1="316.19" x2="137.7" y2="330.28"/>
      <polyline class="st14" points="137.7 427.1 137.7 413.01 150.12 413.01"/>
    </g>
    <g id="tram">
      <path class="st13" d="M114.84,500.96l21.65,10.3h347.96c14.05,0,25.44-11.39,25.44-25.44v-197.19c0-1.93,1.56-3.49,3.49-3.49h603.06"/>
      <path class="st13" d="M119.2,494.97l17.93,9.14h346.26c10.41,0,18.85-8.44,18.85-18.85v-202.3c0-4.09,3.31-7.4,7.4-7.4h606.81"/>
      <rect class="st29" x="522.18" y="275.56" width="110.35" height="9.58"/>
      <rect class="st29" x="631.05" y="184" width="15.78" height="5.87"/>
      <rect class="st29" x="631.05" y="193.45" width="15.78" height="5.87"/>
      <rect class="st29" x="354.85" y="260.01" width="9.58" height="41.78"/>
      <rect class="st29" x="502.31" y="317.24" width="7.58" height="77.55"/>
      <rect class="st29" x="502.31" y="408.85" width="7.58" height="63.66"/>
      <rect class="st29" x="322.24" y="504.11" width="163.34" height="7.15"/>
      <rect class="st29" x="172.19" y="504.11" width="133.62" height="7.15"/>
      <rect class="st29" x="645.8" y="275.56" width="151.31" height="9.58"/>
      <rect class="st29" x="820.25" y="275.56" width="42.58" height="9.58"/>
      <rect class="st29" x="885.02" y="275.56" width="82.91" height="9.58"/>
      <polygon class="st29" points="1135.8 258.41 1111.56 275.56 1098.03 285.13 986.97 285.13 986.97 275.56 1094.99 275.56 1130.28 250.6 1135.8 258.41"/>
    </g>
    <g id="pedestrian">
      <g>
        <rect class="st26" x="158.41" y="495.88" width="13.78" height="4.11"/>
        <rect class="st26" x="158.41" y="502.13" width="13.78" height="4.11"/>
        <rect class="st26" x="158.41" y="508.38" width="13.78" height="4.11"/>
        <rect class="st26" x="158.41" y="514.63" width="13.78" height="4.11"/>
      </g>
      <g>
        <rect class="st26" x="194.31" y="495.88" width="13.3" height="4.11"/>
        <rect class="st26" x="194.31" y="502.13" width="13.3" height="4.11"/>
        <rect class="st26" x="194.31" y="508.38" width="13.3" height="4.11"/>
        <rect class="st26" x="194.31" y="514.63" width="13.3" height="4.11"/>
      </g>
      <g>
        <rect class="st26" x="272.11" y="495.88" width="14.49" height="4.11"/>
        <rect class="st26" x="272.11" y="502.13" width="14.49" height="4.11"/>
        <rect class="st26" x="272.11" y="508.38" width="14.49" height="4.11"/>
        <rect class="st26" x="272.11" y="514.63" width="14.49" height="4.11"/>
      </g>
      <g>
        <rect class="st26" x="379.4" y="495.88" width="14.49" height="4.11"/>
        <rect class="st26" x="379.4" y="502.13" width="14.49" height="4.11"/>
        <rect class="st26" x="379.4" y="508.38" width="14.49" height="4.11"/>
        <rect class="st26" x="379.4" y="514.63" width="14.49" height="4.11"/>
      </g>
      <g>
        <rect class="st26" x="127.31" y="302.41" width="3.74" height="13.78"/>
        <rect class="st26" x="132.99" y="302.41" width="3.74" height="13.78"/>
        <rect class="st26" x="138.68" y="302.41" width="3.74" height="13.78"/>
        <rect class="st26" x="144.37" y="302.41" width="3.74" height="13.78"/>
      </g>
      <g>
        <rect class="st26" x="127.31" y="469.83" width="3.74" height="13.78"/>
        <rect class="st26" x="133" y="469.82" width="3.74" height="13.78"/>
        <rect class="st26" x="138.69" y="469.82" width="3.74" height="13.78"/>
        <rect class="st26" x="144.38" y="469.82" width="3.74" height="13.78"/>
      </g>
      <g>
        <rect class="st26" x="126.92" y="235.77" width="3.74" height="13.78"/>
        <rect class="st26" x="132.61" y="235.78" width="3.74" height="13.78"/>
        <rect class="st26" x="138.3" y="235.78" width="3.74" height="13.78"/>
      </g>
      <g>
        <rect class="st26" x="518.44" y="472.51" width="3.74" height="13.78"/>
        <rect class="st26" x="512.75" y="472.51" width="3.74" height="13.78"/>
        <rect class="st26" x="507.06" y="472.51" width="3.74" height="13.78"/>
        <rect class="st26" x="501.38" y="472.51" width="3.74" height="13.78"/>
        <rect class="st26" x="495.69" y="472.5" width="3.74" height="13.78"/>
        <rect class="st26" x="490" y="472.51" width="3.74" height="13.78"/>
      </g>
      <g>
        <rect class="st26" x="518.44" y="434.78" width="3.74" height="13.78"/>
        <rect class="st26" x="512.75" y="434.78" width="3.74" height="13.78"/>
        <rect class="st26" x="507.06" y="434.77" width="3.74" height="13.78"/>
        <rect class="st26" x="501.37" y="434.77" width="3.74" height="13.78"/>
        <rect class="st26" x="495.68" y="434.77" width="3.74" height="13.78"/>
        <rect class="st26" x="490" y="434.78" width="3.74" height="13.78"/>
      </g>
      <g>
        <rect class="st26" x="518.44" y="359.92" width="3.74" height="13.78"/>
        <rect class="st26" x="512.75" y="359.92" width="3.74" height="13.78"/>
        <rect class="st26" x="507.06" y="359.91" width="3.74" height="13.78"/>
        <rect class="st26" x="501.37" y="359.91" width="3.74" height="13.78"/>
        <rect class="st26" x="495.68" y="359.91" width="3.74" height="13.78"/>
        <rect class="st26" x="490" y="359.92" width="3.74" height="13.78"/>
      </g>
      <g>
        <rect class="st26" x="518.44" y="303.46" width="3.74" height="13.78"/>
        <rect class="st26" x="512.75" y="303.46" width="3.74" height="13.78"/>
        <rect class="st26" x="507.06" y="303.46" width="3.74" height="13.78"/>
        <rect class="st26" x="501.38" y="303.46" width="3.74" height="13.78"/>
        <rect class="st26" x="495.69" y="303.45" width="3.74" height="13.78"/>
        <rect class="st26" x="490" y="303.46" width="3.74" height="13.78"/>
      </g>
      <g>
        <rect class="st26" x="535.77" y="296.3" width="13.78" height="3.74"/>
        <rect class="st26" x="535.77" y="290.62" width="13.78" height="3.74"/>
        <rect class="st26" x="535.77" y="284.93" width="13.78" height="3.74"/>
        <rect class="st26" x="535.77" y="279.24" width="13.78" height="3.74"/>
        <rect class="st26" x="535.77" y="273.55" width="13.78" height="3.74"/>
        <rect class="st26" x="535.77" y="267.86" width="13.78" height="3.74"/>
        <rect class="st26" x="535.77" y="262.18" width="13.78" height="3.74"/>
      </g>
      <g>
        <rect class="st26" x="150.94" y="296.13" width="13.78" height="3.74"/>
        <rect class="st26" x="150.94" y="290.44" width="13.78" height="3.74"/>
        <rect class="st26" x="150.94" y="284.75" width="13.78" height="3.74"/>
        <rect class="st26" x="150.94" y="279.07" width="13.78" height="3.74"/>
        <rect class="st26" x="150.94" y="273.38" width="13.78" height="3.74"/>
        <rect class="st26" x="150.94" y="267.69" width="13.78" height="3.74"/>
        <rect class="st26" x="150.94" y="262" width="13.78" height="3.74"/>
        <rect class="st26" x="150.94" y="256.31" width="13.78" height="3.74"/>
        <rect class="st26" x="150.94" y="250.63" width="13.78" height="3.74"/>
      </g>
      <g>
        <rect class="st26" x="610.49" y="296.3" width="13.78" height="3.74"/>
        <rect class="st26" x="610.49" y="290.62" width="13.78" height="3.74"/>
        <rect class="st26" x="610.49" y="284.93" width="13.78" height="3.74"/>
        <rect class="st26" x="610.49" y="279.24" width="13.78" height="3.74"/>
        <rect class="st26" x="610.49" y="273.55" width="13.78" height="3.74"/>
        <rect class="st26" x="610.49" y="267.86" width="13.78" height="3.74"/>
        <rect class="st26" x="610.49" y="262.18" width="13.78" height="3.74"/>
      </g>
      <g>
        <rect class="st26" x="657.78" y="296.3" width="13.78" height="3.74"/>
        <rect class="st26" x="657.78" y="290.62" width="13.78" height="3.74"/>
        <rect class="st26" x="657.78" y="284.93" width="13.78" height="3.74"/>
        <rect class="st26" x="657.78" y="279.24" width="13.78" height="3.74"/>
        <rect class="st26" x="657.78" y="273.55" width="13.78" height="3.74"/>
        <rect class="st26" x="657.78" y="267.86" width="13.78" height="3.74"/>
        <rect class="st26" x="657.78" y="262.18" width="13.78" height="3.74"/>
      </g>
      <g>
        <rect class="st26" x="527.55" y="402.34" width="9.55" height="2.98"/>
        <rect class="st26" x="527.55" y="397.82" width="9.55" height="2.98"/>
        <rect class="st26" x="527.55" y="393.29" width="9.55" height="2.98"/>
      </g>
      <g>
        <rect class="st26" x="584.18" y="402.34" width="9.55" height="2.98"/>
        <rect class="st26" x="584.18" y="397.82" width="9.55" height="2.98"/>
        <rect class="st26" x="584.18" y="393.29" width="9.55" height="2.98"/>
      </g>
      <g>
        <rect class="st26" x="615.79" y="402.34" width="9.55" height="2.98"/>
        <rect class="st26" x="615.79" y="397.82" width="9.55" height="2.98"/>
        <rect class="st26" x="615.79" y="393.29" width="9.55" height="2.98"/>
      </g>
      <g>
        <rect class="st26" x="632.93" y="380.46" width="2.98" height="9.55"/>
        <rect class="st26" x="637.45" y="380.47" width="2.98" height="9.55"/>
        <rect class="st26" x="641.98" y="380.47" width="2.98" height="9.55"/>
      </g>
      <g>
        <rect class="st26" x="632.93" y="304.71" width="2.98" height="9.55"/>
        <rect class="st26" x="637.46" y="304.71" width="2.98" height="9.55"/>
        <rect class="st26" x="641.98" y="304.72" width="2.98" height="9.55"/>
      </g>
      <g>
        <rect class="st26" x="632.93" y="242.65" width="2.98" height="9.55"/>
        <rect class="st26" x="637.45" y="242.66" width="2.98" height="9.55"/>
        <rect class="st26" x="641.97" y="242.66" width="2.98" height="9.55"/>
      </g>
      <g>
        <rect class="st26" x="632.94" y="420.94" width="2.98" height="9.55"/>
        <rect class="st26" x="637.46" y="420.95" width="2.98" height="9.55"/>
        <rect class="st26" x="641.98" y="420.95" width="2.98" height="9.55"/>
      </g>
      <g>
        <rect class="st26" x="632.93" y="461.35" width="2.98" height="9.55"/>
        <rect class="st26" x="637.45" y="461.36" width="2.98" height="9.55"/>
        <rect class="st26" x="641.98" y="461.36" width="2.98" height="9.55"/>
      </g>
      <g>
        <rect class="st26" x="526.94" y="485.29" width="9.55" height="2.98"/>
        <rect class="st26" x="526.94" y="489.81" width="9.55" height="2.98"/>
        <rect class="st26" x="526.94" y="494.33" width="9.55" height="2.98"/>
      </g>
      <g>
        <rect class="st26" x="616.3" y="485.29" width="9.55" height="2.98"/>
        <rect class="st26" x="616.3" y="489.81" width="9.55" height="2.98"/>
        <rect class="st26" x="616.3" y="494.33" width="9.55" height="2.98"/>
      </g>
    </g>
    <g id="ploshadka">
      <rect id="estakada" class="st28" x="572.9" y="349.62" width="20.28" height="6.48"/>
      <rect id="estakada-gorod" class="st28" x="591.07" y="244.51" width="8.01" height="11.41"/>
      <g id="parallel">
        <rect class="st24" x="597.22" y="374.41" width="11.5" height="4.8"/>
        <rect class="st24" x="579.61" y="369.61" width="11.5" height="4.8"/>
        <rect class="st24" x="597.22" y="364.81" width="11.5" height="4.8"/>
      </g>
      <g id="garage">
        <rect class="st23" x="554.34" y="374.18" width="4.8" height="11.5"/>
        <rect class="st23" x="559.14" y="356.56" width="4.8" height="11.5"/>
        <rect class="st23" x="563.95" y="374.17" width="4.8" height="11.5"/>
      </g>
    </g>
    <g id="speed">
      <rect class="st6" x="289.15" y="507.73" width="73.86" height="13.24"/>
      <rect class="st1" x="363.02" y="507.73" width="159.17" height="13.24"/>
      <rect class="st3" x="138.6" y="507.73" width="150.55" height="13.24"/>
      <rect class="st5" x="150.12" y="494.38" width="338.11" height="13.31"/>
    </g>
    <g id="other-elements">
      <g>
        <polygon class="st22" points="292.54 526.5 291.84 526.5 291.84 527.1 290.98 527.1 292.38 525.17 291.6 525.17 290.09 527.2 290.09 527.7 291.82 527.7 291.82 528.38 292.54 528.38 292.54 527.7 293.07 527.7 293.07 527.1 292.54 527.1 292.54 526.5"/>
        <path class="st22" d="M295.37,525.31c-.21-.13-.44-.2-.71-.2s-.5.07-.7.2-.37.32-.49.56c-.12.25-.18.55-.18.9s.06.65.18.9.28.43.49.56.44.19.7.19.5-.06.71-.19.37-.32.49-.56.18-.55.18-.9-.06-.66-.18-.9c-.12-.25-.28-.43-.49-.56ZM295.21,527.36c-.05.15-.13.27-.22.34s-.2.11-.33.11-.23-.04-.32-.11-.17-.18-.22-.34c-.05-.15-.08-.35-.08-.59s.03-.44.08-.59c.06-.15.13-.26.22-.34.09-.07.2-.11.32-.11s.23.04.33.11c.09.07.17.18.22.34s.08.35.08.59-.03.44-.08.59Z"/>
        <path class="st22" d="M293.07,521.74c-2.78,0-5.03,2.26-5.03,5.03s2.26,5.03,5.03,5.03,5.03-2.26,5.03-5.03-2.26-5.03-5.03-5.03ZM293.07,531.04c-2.35,0-4.27-1.91-4.27-4.27s1.91-4.27,4.27-4.27,4.27,1.91,4.27,4.27-1.91,4.27-4.27,4.27Z"/>
      </g>
      <g>
        <polygon class="st22" points="530.09 384.52 529.4 384.52 529.4 385.12 528.54 385.12 529.94 383.2 529.16 383.2 527.66 385.22 527.66 385.72 529.38 385.72 529.38 386.39 530.09 386.39 530.09 385.72 530.61 385.72 530.61 385.12 530.09 385.12 530.09 384.52"/>
        <path class="st22" d="M532.9,383.34c-.2-.13-.44-.19-.7-.19s-.49.07-.7.19-.37.32-.49.56-.18.54-.18.9.06.65.18.89c.12.24.28.43.49.56s.44.19.7.19.5-.06.7-.19.37-.32.49-.56.18-.54.18-.89-.06-.65-.18-.9c-.12-.24-.28-.43-.49-.56ZM532.74,385.38c-.05.15-.13.26-.22.34s-.2.11-.33.11-.23-.04-.32-.11-.17-.18-.22-.34c-.05-.15-.08-.35-.08-.59s.03-.44.08-.59.13-.26.22-.34c.09-.07.2-.11.32-.11s.23.04.33.11c.09.07.17.18.22.34s.08.35.08.59-.03.44-.08.59Z"/>
        <path class="st22" d="M530.61,379.8c-2.76,0-5,2.24-5,5s2.24,5,5,5,5-2.24,5-5-2.24-5-5-5ZM530.61,389.03c-2.34,0-4.24-1.9-4.24-4.24s1.9-4.24,4.24-4.24,4.24,1.9,4.24,4.24-1.9,4.24-4.24,4.24Z"/>
      </g>
      <g>
        <polygon class="st22" points="560.39 412.81 559.69 412.81 559.69 413.41 558.83 413.41 560.23 411.49 559.45 411.49 557.95 413.51 557.95 414.01 559.67 414.01 559.67 414.68 560.39 414.68 560.39 414.01 560.9 414.01 560.9 413.41 560.39 413.41 560.39 412.81"/>
        <path class="st22" d="M563.19,411.63c-.2-.13-.44-.19-.7-.19s-.49.07-.7.19-.37.32-.49.56-.18.54-.18.9.06.65.18.89c.12.24.28.43.49.56s.44.19.7.19.5-.06.7-.19.37-.32.49-.56.18-.54.18-.89-.06-.65-.18-.9c-.12-.24-.28-.43-.49-.56ZM563.03,413.67c-.05.15-.13.26-.22.34s-.2.11-.33.11-.23-.04-.32-.11-.17-.18-.22-.34c-.05-.15-.08-.35-.08-.59s.03-.44.08-.59.13-.26.22-.34c.09-.07.2-.11.32-.11s.23.04.33.11c.09.07.17.18.22.34s.08.35.08.59-.03.44-.08.59Z"/>
        <path class="st22" d="M560.9,408.09c-2.76,0-5,2.24-5,5s2.24,5,5,5,5-2.24,5-5-2.24-5-5-5ZM560.9,417.33c-2.34,0-4.24-1.9-4.24-4.24s1.9-4.24,4.24-4.24,4.24,1.9,4.24,4.24-1.9,4.24-4.24,4.24Z"/>
      </g>
      <g>
        <polygon class="st22" points="574.74 503.83 574.04 503.83 574.04 504.43 573.19 504.43 574.58 502.51 573.81 502.51 572.3 504.54 572.3 505.03 574.02 505.03 574.02 505.7 574.74 505.7 574.74 505.03 575.26 505.03 575.26 504.43 574.74 504.43 574.74 503.83"/>
        <path class="st22" d="M577.55,502.65c-.2-.13-.44-.19-.7-.19s-.49.07-.7.19-.37.32-.49.56-.18.54-.18.9.06.65.18.89c.12.24.28.43.49.56s.44.19.7.19.5-.06.7-.19.37-.32.49-.56.18-.54.18-.89-.06-.65-.18-.9c-.12-.24-.28-.43-.49-.56ZM577.39,504.7c-.05.15-.13.26-.22.34s-.2.11-.33.11-.23-.04-.32-.11-.17-.18-.22-.34c-.05-.15-.08-.35-.08-.59s.03-.44.08-.59.13-.26.22-.34c.09-.07.2-.11.32-.11s.23.04.33.11c.09.07.17.18.22.34s.08.35.08.59-.03.44-.08.59Z"/>
        <path class="st22" d="M575.26,499.11c-2.76,0-5,2.24-5,5s2.24,5,5,5,5-2.24,5-5-2.24-5-5-5ZM575.26,508.35c-2.34,0-4.24-1.9-4.24-4.24s1.9-4.24,4.24-4.24,4.24,1.9,4.24,4.24-1.9,4.24-4.24,4.24Z"/>
      </g>
      <g>
        <rect class="st9" x="528.25" y="371.32" width="4.74" height="4.74" rx="1.42" ry="1.42" transform="translate(-108.83 484.65) rotate(-45)"/>
        <path class="st27" d="M530.61,378.69c-.34,0-.67-.13-.93-.38l-3.69-3.69c-.51-.51-.51-1.34,0-1.86l3.69-3.69c.51-.51,1.34-.51,1.86,0l3.69,3.69c.51.51.51,1.34,0,1.86l-3.69,3.69c-.26.26-.59.38-.93.38ZM530.61,369.37c-.16,0-.32.06-.44.18l-3.69,3.69c-.25.25-.25.64,0,.89l3.69,3.69c.25.25.64.25.89,0l3.69-3.69c.25-.25.25-.64,0-.89l-3.69-3.69c-.12-.12-.28-.18-.44-.18h-.01Z"/>
      </g>
      <g>
        <rect class="st9" x="651.79" y="394.93" width="4.74" height="4.74" rx="1.42" ry="1.42" transform="translate(-89.34 578.93) rotate(-45)"/>
        <path class="st27" d="M654.16,402.3c-.34,0-.67-.13-.93-.38l-3.69-3.69c-.51-.51-.51-1.34,0-1.86l3.69-3.69c.51-.51,1.34-.51,1.86,0l3.69,3.69c.51.51.51,1.34,0,1.86l-3.69,3.69c-.26.26-.59.38-.93.38ZM654.16,392.98c-.16,0-.32.06-.44.18l-3.69,3.69c-.25.25-.25.64,0,.89l3.69,3.69c.25.25.64.25.89,0l3.69-3.69c.25-.25.25-.64,0-.89l-3.69-3.69c-.12-.12-.28-.18-.44-.18h-.01Z"/>
      </g>
      <g>
        <rect class="st9" x="469.88" y="395.69" width="4.74" height="4.74" rx="1.42" ry="1.42" transform="translate(-143.15 450.52) rotate(-45)"/>
        <path class="st27" d="M472.24,403.04c-.34,0-.67-.13-.93-.38l-3.69-3.69c-.51-.51-.51-1.34,0-1.86l3.69-3.69c.51-.51,1.34-.51,1.86,0l3.69,3.69c.51.51.51,1.34,0,1.86l-3.69,3.69c-.26.26-.59.38-.93.38ZM472.24,393.73c-.16,0-.32.06-.44.18l-3.69,3.69c-.25.25-.25.64,0,.89l3.69,3.69c.25.25.64.25.89,0l3.69-3.69c.25-.25.25-.64,0-.89l-3.69-3.69c-.12-.12-.28-.18-.44-.18h-.01Z"/>
      </g>
      <g>
        <rect class="st9" x="527.15" y="505.36" width="4.74" height="4.74" rx="1.42" ry="1.42" transform="translate(-203.93 523.14) rotate(-45)"/>
        <path class="st27" d="M529.53,512.73c-.34,0-.67-.13-.93-.38l-3.69-3.69c-.51-.51-.51-1.34,0-1.86l3.69-3.69c.51-.51,1.34-.51,1.86,0l3.69,3.69c.51.51.51,1.34,0,1.86l-3.69,3.69c-.26.26-.59.38-.93.38ZM529.53,503.41c-.16,0-.32.06-.44.18l-3.69,3.69c-.25.25-.25.64,0,.89l3.69,3.69c.25.25.64.25.89,0l3.69-3.69c.25-.25.25-.64,0-.89l-3.69-3.69c-.12-.12-.28-.18-.44-.18h-.01Z"/>
      </g>
      <g>
        <rect class="st9" x="561.24" y="501.73" width="4.74" height="4.74" rx="1.42" ry="1.42" transform="translate(-191.38 546.18) rotate(-45)"/>
        <path class="st27" d="M563.6,509.1c-.34,0-.67-.13-.93-.38l-3.69-3.69c-.51-.51-.51-1.34,0-1.86l3.69-3.69c.51-.51,1.34-.51,1.86,0l3.69,3.69c.51.51.51,1.34,0,1.86l-3.69,3.69c-.26.26-.59.38-.93.38ZM563.6,499.78c-.16,0-.32.06-.44.18l-3.69,3.69c-.25.25-.25.64,0,.89l3.69,3.69c.25.25.64.25.89,0l3.69-3.69c.25-.25.25-.64,0-.89l-3.69-3.69c-.12-.12-.28-.18-.44-.18h-.01Z"/>
      </g>
      <g>
        <g>
          <rect class="st9" x="610.13" y="151.7" width="4.74" height="4.74" rx="1.42" ry="1.42" transform="translate(70.46 478.23) rotate(-45)"/>
          <path class="st27" d="M612.5,159.07c-.34,0-.67-.13-.93-.38l-3.69-3.69c-.51-.51-.51-1.34,0-1.86l3.69-3.69c.51-.51,1.34-.51,1.86,0l3.69,3.69c.51.51.51,1.34,0,1.86l-3.69,3.69c-.26.26-.59.38-.93.38ZM612.5,149.75c-.16,0-.32.06-.44.18l-3.69,3.69c-.25.25-.25.64,0,.89l3.69,3.69c.25.25.64.25.89,0l3.69-3.69c.25-.25.25-.64,0-.89l-3.69-3.69c-.12-.12-.28-.18-.44-.18h-.01Z"/>
        </g>
        <path class="st27" d="M615.14,168.11h-5.26c-.73,0-1.33-.59-1.33-1.33v-5.26c0-.73.59-1.33,1.33-1.33h5.26c.73,0,1.33.59,1.33,1.33v5.26c0,.73-.59,1.33-1.33,1.33ZM609.87,160.88c-.35,0-.64.29-.64.64v5.26c0,.35.29.64.64.64h5.26c.35,0,.64-.29.64-.64v-5.26c0-.35-.29-.64-.64-.64h-5.26Z"/>
        <path class="st27" d="M613.97,167.68h-1.04v-2.88c0-.07-.06-.13-.13-.13-.64,0-1.17-.52-1.17-1.17v-2.82h1.04v2.82c0,.07.06.13.13.13.64,0,1.17.52,1.17,1.17v2.88Z"/>
        <rect class="st27" x="608.8" y="163.84" width="2.39" height=".69"/>
      </g>
      <g>
        <path class="st21" d="M619.29,406.32l3.53,6.11c.46.79,1.6.79,2.05,0l3.53-6.11c.46-.79-.11-1.78-1.03-1.78h-7.05c-.91,0-1.48.99-1.03,1.78Z"/>
        <path class="st22" d="M623.84,413.52c-.61,0-1.15-.32-1.46-.84l-3.53-6.11c-.3-.53-.3-1.16,0-1.68.3-.53.85-.84,1.46-.84h7.05c.61,0,1.15.31,1.46.84.3.53.3,1.16,0,1.69l-3.53,6.11c-.3.53-.85.84-1.46.84h.01ZM619.73,406.07l3.53,6.11c.25.43.94.43,1.19,0l3.53-6.11c.12-.21.12-.47,0-.69-.12-.21-.35-.34-.59-.34h-7.05c-.25,0-.47.13-.59.34-.12.21-.12.47,0,.68h-.02Z"/>
      </g>
      <g>
        <path class="st21" d="M528.02,479.64l3.53,6.11c.46.79,1.6.79,2.05,0l3.53-6.11c.46-.79-.11-1.78-1.03-1.78h-7.05c-.91,0-1.48.99-1.03,1.78Z"/>
        <path class="st22" d="M532.57,486.84c-.61,0-1.15-.32-1.46-.84l-3.53-6.11c-.3-.53-.3-1.16,0-1.68.3-.53.85-.84,1.46-.84h7.05c.61,0,1.15.31,1.46.84.3.53.3,1.16,0,1.69l-3.53,6.11c-.3.53-.85.84-1.46.84h.01ZM528.45,479.39l3.53,6.11c.25.43.94.43,1.19,0l3.53-6.11c.12-.21.12-.47,0-.69-.12-.21-.35-.34-.59-.34h-7.05c-.25,0-.47.13-.59.34-.12.21-.12.47,0,.68h-.02Z"/>
      </g>
      <g>
        <path class="st21" d="M618.48,501.65l3.53,6.11c.46.79,1.6.79,2.05,0l3.53-6.11c.46-.79-.11-1.78-1.03-1.78h-7.05c-.91,0-1.48.99-1.03,1.78Z"/>
        <path class="st22" d="M623.03,508.85c-.61,0-1.15-.32-1.46-.84l-3.53-6.11c-.3-.53-.3-1.16,0-1.68.3-.53.85-.84,1.46-.84h7.05c.61,0,1.15.31,1.46.84.3.53.3,1.16,0,1.69l-3.53,6.11c-.3.53-.85.84-1.46.84h.01ZM618.91,501.4l3.53,6.11c.25.43.94.43,1.19,0l3.53-6.11c.12-.21.12-.47,0-.69-.12-.21-.35-.34-.59-.34h-7.05c-.25,0-.47.13-.59.34-.12.21-.12.47,0,.68h-.02Z"/>
      </g>
      <g>
        <circle class="st11" cx="452.76" cy="488.14" r="3.94"/>
        <path class="st22" d="M452.79,483.72c-2.41,0-4.37,1.96-4.37,4.37s1.96,4.37,4.37,4.37,4.37-1.96,4.37-4.37-1.96-4.37-4.37-4.37ZM452.79,491.8c-2.04,0-3.71-1.66-3.71-3.71s1.66-3.71,3.71-3.71,3.71,1.66,3.71,3.71-1.66,3.71-3.71,3.71Z"/>
        <rect class="st22" x="452.45" y="484.08" width=".66" height="8.02" transform="translate(-212.52 463.12) rotate(-45)"/>
        <rect class="st22" x="448.94" y="487.69" width="7.82" height=".66" transform="translate(-212.45 463.15) rotate(-45)"/>
      </g>
      <g>
        <circle class="st11" cx="542.25" cy="459.3" r="4.51"/>
        <path class="st22" d="M542.28,454.25c-2.76,0-5,2.24-5,5s2.24,5,5,5,5-2.24,5-5-2.24-5-5-5ZM542.28,463.48c-2.34,0-4.24-1.9-4.24-4.24s1.9-4.24,4.24-4.24,4.24,1.9,4.24,4.24-1.9,4.24-4.24,4.24Z"/>
        <rect class="st22" x="541.91" y="454.66" width=".76" height="9.17" transform="translate(-165.9 517.96) rotate(-45)"/>
        <rect class="st22" x="537.89" y="458.79" width="8.94" height=".76" transform="translate(-165.83 517.99) rotate(-45)"/>
      </g>
      <g>
        <circle class="st11" cx="528.6" cy="415.54" r="4.51"/>
        <path class="st22" d="M528.64,410.49c-2.76,0-5,2.24-5,5s2.24,5,5,5,5-2.24,5-5-2.24-5-5-5ZM528.64,419.72c-2.34,0-4.24-1.9-4.24-4.24s1.9-4.24,4.24-4.24,4.24,1.9,4.24,4.24-1.9,4.24-4.24,4.24Z"/>
        <rect class="st22" x="528.26" y="410.89" width=".76" height="9.17" transform="translate(-138.95 495.49) rotate(-45)"/>
        <rect class="st22" x="524.24" y="415.03" width="8.94" height=".76" transform="translate(-138.89 495.53) rotate(-45)"/>
      </g>
      <g>
        <circle class="st11" cx="614.1" cy="412.55" r="4.51"/>
        <path class="st22" d="M614.13,407.5c-2.76,0-5,2.24-5,5s2.24,5,5,5,5-2.24,5-5-2.24-5-5-5ZM614.13,416.74c-2.34,0-4.24-1.9-4.24-4.24s1.9-4.24,4.24-4.24,4.24,1.9,4.24,4.24-1.9,4.24-4.24,4.24Z"/>
        <rect class="st22" x="613.74" y="407.92" width=".76" height="9.17" transform="translate(-111.81 555.07) rotate(-45)"/>
        <rect class="st22" x="609.74" y="412.04" width="8.94" height=".76" transform="translate(-111.73 555.11) rotate(-45)"/>
      </g>
      <g>
        <circle class="st11" cx="621.78" cy="386.17" r="4.51"/>
        <path class="st22" d="M621.81,381.12c-2.76,0-5,2.24-5,5s2.24,5,5,5,5-2.24,5-5-2.24-5-5-5ZM621.81,390.35c-2.34,0-4.24-1.9-4.24-4.24s1.9-4.24,4.24-4.24,4.24,1.9,4.24,4.24-1.9,4.24-4.24,4.24Z"/>
        <rect class="st22" x="621.43" y="381.53" width=".76" height="9.17" transform="translate(-90.9 552.78) rotate(-45)"/>
        <rect class="st22" x="617.42" y="385.66" width="8.94" height=".76" transform="translate(-90.82 552.81) rotate(-45)"/>
      </g>
      <g>
        <g>
          <rect class="st21" x="526.64" y="421.52" width="3.99" height="6.94" rx="1.02" ry="1.02"/>
          <path class="st12" d="M529.75,428.88h-2.23c-.72,0-1.31-.59-1.31-1.31v-5.18c0-.72.59-1.31,1.31-1.31h2.23c.72,0,1.31.59,1.31,1.31v5.18c0,.72-.59,1.31-1.31,1.31ZM527.52,421.94c-.25,0-.45.2-.45.45v5.18c0,.25.2.45.45.45h2.23c.25,0,.45-.2.45-.45v-5.18c0-.25-.2-.45-.45-.45h-2.23Z"/>
        </g>
        <polygon class="st12" points="527.81 425.69 528.64 427.11 529.46 425.69 528.96 425.69 528.96 421.51 528.31 421.51 528.31 425.69 527.81 425.69"/>
      </g>
      <g>
        <g>
          <rect class="st21" x="286.92" y="533.11" width="12.3" height="5.09" rx="1.02" ry="1.02"/>
          <path class="st12" d="M298.44,538.58h-10.74c-.64,0-1.16-.52-1.16-1.16v-3.53c0-.64.52-1.16,1.16-1.16h10.74c.64,0,1.16.52,1.16,1.16v3.53c0,.64-.52,1.16-1.16,1.16ZM287.7,533.49c-.22,0-.4.18-.4.4v3.53c0,.22.18.4.4.4h10.74c.22,0,.4-.18.4-.4v-3.53c0-.22-.18-.4-.4-.4h-10.74Z"/>
        </g>
        <g>
          <g>
            <path class="st12" d="M289.87,536.68v-1.88l.21.21h-.62v-.38h.89v2.05h-.48Z"/>
            <path class="st12" d="M291.58,536.71c-.17,0-.32-.04-.45-.12s-.24-.2-.31-.36c-.08-.16-.12-.35-.12-.58s.04-.42.12-.58c.08-.16.18-.28.31-.36.13-.08.28-.12.45-.12s.32.04.45.12.24.2.31.36.12.35.12.58-.04.42-.12.58c-.08.16-.18.28-.31.36-.13.08-.28.12-.45.12ZM291.58,536.32c.08,0,.15-.02.21-.07s.11-.12.14-.22c.03-.1.05-.22.05-.38s-.02-.28-.05-.38-.08-.17-.14-.21c-.06-.05-.13-.07-.21-.07s-.14.02-.21.07c-.06.05-.11.12-.14.21-.04.1-.05.22-.05.38s.02.28.05.38c.04.1.08.17.14.22.06.05.13.07.21.07Z"/>
            <path class="st12" d="M293.57,536.71c-.17,0-.32-.04-.45-.12s-.24-.2-.31-.36c-.08-.16-.12-.35-.12-.58s.04-.42.12-.58c.08-.16.18-.28.31-.36.13-.08.28-.12.45-.12s.32.04.45.12.24.2.31.36.12.35.12.58-.04.42-.12.58c-.08.16-.18.28-.31.36-.13.08-.28.12-.45.12ZM293.57,536.32c.08,0,.15-.02.21-.07s.11-.12.14-.22c.03-.1.05-.22.05-.38s-.02-.28-.05-.38-.08-.17-.14-.21c-.06-.05-.13-.07-.21-.07s-.14.02-.21.07c-.06.05-.11.12-.14.21-.04.1-.05.22-.05.38s.02.28.05.38c.04.1.08.17.14.22.06.05.13.07.21.07Z"/>
            <path class="st12" d="M294.78,536.68v-1.58h.48l.59,1.08h-.19l.64-1.08h.43v1.58h-.41v-1.11l.07.05-.54.91h-.2l-.54-.94.08-.02v1.11h-.41,0Z"/>
          </g>
          <polygon class="st12" points="289.05 535.66 288.32 534.39 287.59 535.66 288.03 535.66 288.03 536.92 288.61 536.92 288.61 535.66 289.05 535.66"/>
          <polygon class="st12" points="298.54 535.66 297.81 534.39 297.08 535.66 297.53 535.66 297.53 536.92 298.1 536.92 298.1 535.66 298.54 535.66"/>
        </g>
      </g>
      <g>
        <rect class="st11" x="823.12" y="275.59" width="9.54" height="9.54" rx="1.02" ry="1.02"/>
        <path class="st21" d="M827.7,277.72c-1.12,0-2.02.9-2.02,2.02v1.61h-.69l1.13,1.96,1.13-1.96h-.69v-1.61c0-.63.51-1.13,1.13-1.13h0c.63,0,1.13.51,1.13,1.13v5.39h.89v-5.39c0-1.12-.9-2.02-2.02-2.02h.01Z"/>
      </g>
      <g>
        <g>
          <polygon class="st22" points="350.03 304.07 344.58 304.07 340.72 307.92 340.72 313.38 344.58 317.23 350.03 317.23 353.89 313.38 353.89 307.92 350.03 304.07"/>
          <g>
            <path class="st21" d="M343.18,312.03c-.21,0-.42-.03-.61-.09-.2-.06-.35-.13-.47-.22l.21-.46c.11.08.25.15.4.2.16.05.32.08.48.08.12,0,.22-.01.3-.04s.13-.06.17-.1.05-.09.05-.15c0-.07-.03-.13-.08-.17-.06-.04-.13-.08-.22-.1-.09-.03-.19-.05-.3-.08-.11-.02-.22-.05-.33-.09-.11-.03-.21-.08-.3-.14-.09-.06-.17-.13-.22-.22s-.08-.21-.08-.35c0-.15.04-.29.12-.42s.2-.23.37-.3c.17-.07.37-.11.63-.11.17,0,.33.02.5.06.16.04.31.1.43.17l-.19.46c-.12-.07-.24-.12-.37-.15s-.25-.05-.37-.05-.22.01-.29.04-.13.06-.16.11-.05.1-.05.15c0,.07.03.13.08.17s.13.08.22.1c.09.02.19.05.3.07.11.02.22.05.33.09s.21.08.3.14c.09.05.17.13.22.22s.09.21.09.34c0,.15-.04.29-.12.41s-.21.22-.37.3c-.17.08-.38.11-.63.11l-.04.02Z"/>
            <path class="st21" d="M345.24,311.98v-2.16h-.85v-.5h2.32v.5h-.85v2.16h-.62Z"/>
            <path class="st21" d="M348.3,312.03c-.21,0-.4-.03-.58-.1s-.33-.17-.46-.29-.23-.27-.31-.44c-.07-.17-.11-.35-.11-.55s.04-.38.11-.55.17-.31.31-.44.29-.22.46-.29c.18-.07.37-.1.58-.1s.4.03.58.1.33.16.46.29c.13.12.23.27.31.44.07.17.11.35.11.55s-.04.38-.11.55c-.07.17-.17.31-.31.44-.13.12-.29.22-.46.29-.18.07-.37.1-.58.1ZM348.29,311.51c.12,0,.23-.02.33-.06.1-.04.19-.1.26-.18.08-.08.14-.17.18-.27.04-.1.06-.22.06-.34s-.02-.24-.06-.34-.1-.19-.18-.27-.16-.14-.26-.18-.21-.06-.33-.06-.23.02-.33.06c-.1.04-.19.1-.26.18s-.13.17-.18.27c-.04.1-.06.22-.06.34s.02.24.06.34.1.19.18.27c.07.08.16.14.26.18.1.04.21.06.33.06Z"/>
            <path class="st21" d="M350.21,311.98v-2.66h1.15c.24,0,.44.04.62.12.17.08.31.19.4.33.09.14.14.32.14.51s-.05.37-.14.52c-.09.14-.23.25-.4.33-.17.08-.38.12-.62.12h-.81l.28-.28v1.01h-.62ZM350.83,311.04l-.28-.29h.78c.19,0,.33-.04.43-.12s.14-.19.14-.34-.05-.26-.14-.34c-.1-.08-.24-.12-.43-.12h-.78l.28-.29v1.51h0Z"/>
          </g>
        </g>
        <path class="st17" d="M352.74,324.6l-3.49-2.09,3.49-2.09c.47-.28.63-.9.34-1.37-.28-.47-.9-.63-1.37-.34l-4.4,2.64-4.4-2.64c-.47-.29-1.09-.13-1.37.34s-.13,1.09.34,1.37l3.49,2.09-3.49,2.09c-.47.28-.63.9-.34,1.37.19.31.52.49.86.49.18,0,.35-.05.51-.14l4.4-2.64,4.4,2.64c.16.1.34.14.51.14.34,0,.67-.17.86-.49.28-.47.13-1.09-.34-1.37Z"/>
      </g>
      <g>
        <g>
          <polygon class="st22" points="373.18 234.08 367.73 234.08 363.87 237.94 363.87 243.39 367.73 247.25 373.18 247.25 377.04 243.39 377.04 237.94 373.18 234.08"/>
          <g>
            <path class="st21" d="M366.33,242.04c-.21,0-.42-.03-.61-.09-.2-.06-.35-.13-.47-.22l.21-.46c.11.08.25.15.4.2.16.05.32.08.48.08.12,0,.22,0,.3-.04s.13-.06.17-.1c.04-.04.05-.09.05-.15,0-.07-.03-.13-.08-.17-.06-.04-.13-.08-.22-.1-.09-.03-.19-.05-.3-.08-.11-.02-.22-.05-.33-.09-.11-.03-.21-.08-.3-.14s-.17-.13-.22-.22-.08-.21-.08-.35c0-.15.04-.29.12-.42s.2-.23.37-.3c.17-.07.37-.11.63-.11.17,0,.33.02.5.06.16.04.31.1.43.17l-.19.46c-.12-.07-.24-.12-.37-.15s-.25-.05-.37-.05-.22,0-.29.04-.13.06-.16.11-.05.1-.05.15c0,.07.03.13.08.17s.13.08.22.1.19.05.3.07.22.05.33.09.21.08.3.14c.09.05.17.13.22.22s.09.21.09.34c0,.15-.04.29-.12.41-.08.12-.21.22-.37.3-.17.08-.38.11-.63.11l-.04.02Z"/>
            <path class="st21" d="M368.39,242v-2.16h-.85v-.5h2.32v.5h-.85v2.16h-.62Z"/>
            <path class="st21" d="M371.45,242.04c-.21,0-.4-.03-.58-.1s-.33-.17-.46-.29-.23-.27-.31-.44c-.07-.17-.11-.35-.11-.55s.04-.38.11-.55.17-.31.31-.44.29-.22.46-.29c.18-.07.37-.1.58-.1s.4.03.58.1.33.16.46.29c.13.12.23.27.31.44.07.17.11.35.11.55s-.04.38-.11.55c-.07.17-.17.31-.31.44-.13.12-.29.22-.46.29-.18.07-.37.1-.58.1ZM371.44,241.52c.12,0,.23-.02.33-.06.1-.04.19-.1.26-.18.08-.08.14-.17.18-.27.04-.1.06-.22.06-.34s-.02-.24-.06-.34c-.04-.1-.1-.19-.18-.27s-.16-.14-.26-.18-.21-.06-.33-.06-.23.02-.33.06c-.1.04-.19.1-.26.18-.07.08-.13.17-.18.27-.04.1-.06.22-.06.34s.02.24.06.34c.04.1.1.19.18.27.07.08.16.14.26.18s.21.06.33.06Z"/>
            <path class="st21" d="M373.36,242v-2.66h1.15c.24,0,.44.04.62.12.17.08.31.19.4.33s.14.32.14.51-.05.37-.14.52c-.09.14-.23.25-.4.33-.17.08-.38.12-.62.12h-.81l.28-.28v1.01h-.62ZM373.98,241.05l-.28-.29h.78c.19,0,.33-.04.43-.12s.14-.19.14-.34-.05-.26-.14-.34c-.1-.08-.24-.12-.43-.12h-.78l.28-.29v1.51h0Z"/>
          </g>
        </g>
        <path class="st17" d="M375.89,254.62l-3.49-2.09,3.49-2.09c.47-.28.63-.9.34-1.37-.28-.47-.9-.63-1.37-.34l-4.4,2.64-4.4-2.64c-.47-.29-1.09-.13-1.37.34s-.13,1.09.34,1.37l3.49,2.09-3.49,2.09c-.47.28-.63.9-.34,1.37.19.31.52.49.86.49.18,0,.35-.05.51-.14l4.4-2.64,4.4,2.64c.16.1.34.14.51.14.34,0,.67-.17.86-.49.28-.47.13-1.09-.34-1.37h0Z"/>
      </g>
      <g>
        <g>
          <polygon class="st22" points="659.81 185.84 654.35 185.84 650.49 189.7 650.49 195.15 654.35 199.01 659.81 199.01 663.66 195.15 663.66 189.7 659.81 185.84"/>
          <g>
            <path class="st21" d="M652.95,193.8c-.21,0-.42-.03-.61-.09-.2-.06-.35-.13-.47-.22l.21-.46c.11.08.25.15.4.2.16.05.32.08.48.08.12,0,.22,0,.3-.04s.13-.06.17-.1c.04-.04.05-.09.05-.15,0-.07-.03-.13-.08-.17-.06-.04-.13-.08-.22-.1-.09-.03-.19-.05-.3-.08-.11-.02-.22-.05-.33-.09-.11-.03-.21-.08-.3-.14-.09-.06-.17-.13-.22-.22s-.08-.21-.08-.35c0-.15.04-.29.12-.42s.2-.23.37-.3.37-.11.63-.11c.17,0,.33.02.5.06.16.04.31.1.43.17l-.19.46c-.12-.07-.24-.12-.37-.15s-.25-.05-.37-.05-.22,0-.29.04-.13.06-.16.11c-.03.05-.05.1-.05.15,0,.07.03.13.08.17s.13.08.22.1c.09.02.19.05.3.07s.22.05.33.09c.11.04.21.08.3.14.09.05.17.13.22.22s.09.21.09.34c0,.15-.04.29-.12.41-.08.12-.21.22-.37.3-.17.08-.38.11-.63.11l-.04.02Z"/>
            <path class="st21" d="M655.01,193.75v-2.16h-.85v-.5h2.32v.5h-.85v2.16h-.62Z"/>
            <path class="st21" d="M658.07,193.8c-.21,0-.4-.03-.58-.1s-.33-.17-.46-.29-.23-.27-.31-.44c-.07-.17-.11-.35-.11-.55s.04-.38.11-.55.17-.31.31-.44.29-.22.46-.29c.18-.07.37-.1.58-.1s.4.03.58.1.33.16.46.29c.13.12.23.27.31.44.07.17.11.35.11.55s-.04.38-.11.55-.17.31-.31.44c-.13.12-.29.22-.46.29-.18.07-.37.1-.58.1ZM658.06,193.28c.12,0,.23-.02.33-.06.1-.04.19-.1.26-.18.08-.08.14-.17.18-.27s.06-.22.06-.34-.02-.24-.06-.34c-.04-.1-.1-.19-.18-.27s-.16-.14-.26-.18-.21-.06-.33-.06-.23.02-.33.06c-.1.04-.19.1-.26.18-.07.08-.13.17-.18.27-.04.1-.06.22-.06.34s.02.24.06.34c.04.1.1.19.18.27.07.08.16.14.26.18.1.04.21.06.33.06Z"/>
            <path class="st21" d="M659.99,193.75v-2.66h1.15c.24,0,.44.04.62.12.17.08.31.19.4.33s.14.32.14.51-.05.37-.14.52c-.09.14-.23.25-.4.33-.17.08-.38.12-.62.12h-.81l.28-.28v1.01h-.62ZM660.61,192.81l-.28-.29h.78c.19,0,.33-.04.43-.12s.14-.19.14-.34-.05-.26-.14-.34c-.1-.08-.24-.12-.43-.12h-.78l.28-.29v1.51h0Z"/>
          </g>
        </g>
        <path class="st17" d="M662.51,206.37l-3.49-2.09,3.49-2.09c.47-.28.63-.9.34-1.37-.28-.47-.9-.63-1.37-.34l-4.4,2.64-4.4-2.64c-.47-.29-1.09-.13-1.37.34-.28.47-.13,1.09.34,1.37l3.49,2.09-3.49,2.09c-.47.28-.63.9-.34,1.37.19.31.52.49.86.49.18,0,.35-.05.51-.14l4.4-2.64,4.4,2.64c.16.1.34.14.51.14.34,0,.67-.17.86-.49.28-.47.13-1.09-.34-1.37Z"/>
      </g>
      <g>
        <g>
          <polygon class="st22" points="625.66 173.6 620.21 173.6 616.35 177.46 616.35 182.91 620.21 186.77 625.66 186.77 629.52 182.91 629.52 177.46 625.66 173.6"/>
          <g>
            <path class="st21" d="M618.8,181.56c-.21,0-.42-.03-.61-.09-.2-.06-.35-.13-.47-.22l.21-.46c.11.08.25.15.4.2.16.05.32.08.48.08.12,0,.22,0,.3-.04s.13-.06.17-.1c.04-.04.05-.09.05-.15,0-.07-.03-.13-.08-.17-.06-.04-.13-.08-.22-.1-.09-.03-.19-.05-.3-.08-.11-.02-.22-.05-.33-.09-.11-.03-.21-.08-.3-.14-.09-.06-.17-.13-.22-.22s-.08-.21-.08-.35c0-.15.04-.29.12-.42s.2-.23.37-.3.37-.11.63-.11c.17,0,.33.02.5.06.16.04.31.1.43.17l-.19.46c-.12-.07-.24-.12-.37-.15s-.25-.05-.37-.05-.22,0-.29.04-.13.06-.16.11c-.03.05-.05.1-.05.15,0,.07.03.13.08.17s.13.08.22.1c.09.02.19.05.3.07s.22.05.33.09c.11.04.21.08.3.14.09.05.17.13.22.22s.09.21.09.34c0,.15-.04.29-.12.41-.08.12-.21.22-.37.3-.17.08-.38.11-.63.11l-.04.02Z"/>
            <path class="st21" d="M620.87,181.51v-2.16h-.85v-.5h2.32v.5h-.85v2.16h-.62Z"/>
            <path class="st21" d="M623.92,181.56c-.21,0-.4-.03-.58-.1s-.33-.17-.46-.29-.23-.27-.31-.44c-.07-.17-.11-.35-.11-.55s.04-.38.11-.55.17-.31.31-.44.29-.22.46-.29c.18-.07.37-.1.58-.1s.4.03.58.1.33.16.46.29c.13.12.23.27.31.44.07.17.11.35.11.55s-.04.38-.11.55-.17.31-.31.44c-.13.12-.29.22-.46.29-.18.07-.37.1-.58.1ZM623.92,181.04c.12,0,.23-.02.33-.06.1-.04.19-.1.26-.18.08-.08.14-.17.18-.27s.06-.22.06-.34-.02-.24-.06-.34c-.04-.1-.1-.19-.18-.27s-.16-.14-.26-.18-.21-.06-.33-.06-.23.02-.33.06c-.1.04-.19.1-.26.18-.07.08-.13.17-.18.27-.04.1-.06.22-.06.34s.02.24.06.34c.04.1.1.19.18.27.07.08.16.14.26.18.1.04.21.06.33.06Z"/>
            <path class="st21" d="M625.84,181.51v-2.66h1.15c.24,0,.44.04.62.12.17.08.31.19.4.33s.14.32.14.51-.05.37-.14.52c-.09.14-.23.25-.4.33-.17.08-.38.12-.62.12h-.81l.28-.28v1.01h-.62ZM626.46,180.57l-.28-.29h.78c.19,0,.33-.04.43-.12s.14-.19.14-.34-.05-.26-.14-.34c-.1-.08-.24-.12-.43-.12h-.78l.28-.29v1.51h0Z"/>
          </g>
        </g>
        <path class="st17" d="M628.37,194.13l-3.49-2.09,3.49-2.09c.47-.28.63-.9.34-1.37-.28-.47-.9-.63-1.37-.34l-4.4,2.64-4.4-2.64c-.47-.29-1.09-.13-1.37.34-.28.47-.13,1.09.34,1.37l3.49,2.09-3.49,2.09c-.47.28-.63.9-.34,1.37.19.31.52.49.86.49.18,0,.35-.05.51-.14l4.4-2.64,4.4,2.64c.16.1.34.14.51.14.34,0,.67-.17.86-.49.28-.47.13-1.09-.34-1.37Z"/>
      </g>
      <g>
        <circle class="st11" cx="542.71" cy="482.11" r="4.65"/>
        <path class="st21" d="M546.05,481.4l-2.11-1.22v.74h-2.59c-.69,0-1.26.56-1.26,1.26v3.65h.96v-3.44c0-.28.23-.51.51-.51h2.38v.74l2.11-1.22h0Z"/>
      </g>
      <g>
        <polygon class="st22" points="529.73 458.97 529.03 458.97 529.03 459.57 528.17 459.57 529.57 457.64 528.79 457.64 527.27 459.68 527.27 460.18 529 460.18 529 460.85 529.73 460.85 529.73 460.18 530.25 460.18 530.25 459.57 529.73 459.57 529.73 458.97"/>
        <path class="st22" d="M532.55,457.78c-.21-.13-.44-.2-.71-.2s-.5.07-.7.2-.37.32-.49.56c-.12.25-.18.55-.18.9s.06.65.18.9.28.43.49.56.44.19.7.19.5-.06.71-.19.37-.32.49-.56.18-.55.18-.9-.06-.66-.18-.9c-.12-.25-.28-.43-.49-.56ZM532.39,459.84c-.05.15-.13.27-.22.34s-.2.11-.33.11-.23-.04-.32-.11-.17-.18-.22-.34c-.05-.15-.08-.35-.08-.59s.03-.44.08-.59c.06-.15.13-.26.22-.34.09-.07.2-.11.32-.11s.23.04.33.11c.09.07.17.18.22.34s.08.35.08.59-.03.44-.08.59Z"/>
        <path class="st22" d="M530.25,454.21c-2.78,0-5.03,2.26-5.03,5.03s2.26,5.03,5.03,5.03,5.03-2.26,5.03-5.03-2.26-5.03-5.03-5.03ZM530.25,463.51c-2.35,0-4.27-1.91-4.27-4.27s1.91-4.27,4.27-4.27,4.27,1.91,4.27,4.27-1.91,4.27-4.27,4.27Z"/>
      </g>
      <g>
        <g>
          <rect class="st21" x="524.1" y="465.58" width="12.3" height="5.09" rx="1.02" ry="1.02"/>
          <path class="st12" d="M535.62,471.05h-10.74c-.64,0-1.16-.52-1.16-1.16v-3.53c0-.64.52-1.16,1.16-1.16h10.74c.64,0,1.16.52,1.16,1.16v3.53c0,.64-.52,1.16-1.16,1.16ZM524.88,465.96c-.22,0-.4.18-.4.4v3.53c0,.22.18.4.4.4h10.74c.22,0,.4-.18.4-.4v-3.53c0-.22-.18-.4-.4-.4h-10.74Z"/>
        </g>
        <g>
          <g>
            <path class="st12" d="M527.05,469.15v-1.88l.21.21h-.62v-.38h.89v2.05h-.48Z"/>
            <path class="st12" d="M528.76,469.19c-.17,0-.32-.04-.45-.12s-.24-.2-.31-.36c-.08-.16-.12-.35-.12-.58s.04-.42.12-.58c.08-.16.18-.28.31-.36s.28-.12.45-.12.32.04.45.12.24.2.31.36.12.35.12.58-.04.42-.12.58c-.08.16-.18.28-.31.36s-.28.12-.45.12ZM528.76,468.79c.08,0,.15-.02.21-.07.06-.05.11-.12.14-.22s.05-.22.05-.38-.02-.28-.05-.38c-.03-.1-.08-.17-.14-.21-.06-.05-.13-.07-.21-.07s-.14.02-.21.07c-.06.05-.11.12-.14.21-.04.1-.05.22-.05.38s.02.28.05.38c.04.1.08.17.14.22s.13.07.21.07Z"/>
            <path class="st12" d="M530.75,469.19c-.17,0-.32-.04-.45-.12s-.24-.2-.31-.36c-.08-.16-.12-.35-.12-.58s.04-.42.12-.58c.08-.16.18-.28.31-.36s.28-.12.45-.12.32.04.45.12.24.2.31.36.12.35.12.58-.04.42-.12.58c-.08.16-.18.28-.31.36s-.28.12-.45.12ZM530.75,468.79c.08,0,.15-.02.21-.07.06-.05.11-.12.14-.22s.05-.22.05-.38-.02-.28-.05-.38c-.03-.1-.08-.17-.14-.21-.06-.05-.13-.07-.21-.07s-.14.02-.21.07c-.06.05-.11.12-.14.21-.04.1-.05.22-.05.38s.02.28.05.38c.04.1.08.17.14.22s.13.07.21.07Z"/>
            <path class="st12" d="M531.97,469.15v-1.58h.48l.59,1.08h-.19l.64-1.08h.43v1.58h-.41v-1.11l.07.05-.54.91h-.2l-.54-.94.08-.02v1.11h-.41Z"/>
          </g>
          <polygon class="st12" points="526.23 468.13 525.5 466.86 524.77 468.13 525.22 468.13 525.22 469.39 525.79 469.39 525.79 468.13 526.23 468.13"/>
          <polygon class="st12" points="535.73 468.13 535 466.86 534.27 468.13 534.71 468.13 534.71 469.39 535.28 469.39 535.28 468.13 535.73 468.13"/>
        </g>
      </g>
    </g>
    <g id="transport">
      <g>
        <rect class="st11" x="363.02" y="502.16" width="7.8" height="11.04" rx="1.02" ry="1.02"/>
        <rect class="st21" x="363.66" y="503.58" width="6.51" height="6.51" rx=".72" ry=".72"/>
        <path class="st25" d="M369.23,506.12v1.61h-4.63v-1.61c0-.27.22-.49.49-.49h3.65c.27,0,.49.22.49.49h0Z"/>
        <circle class="st15" cx="365.35" cy="507.78" r=".38"/>
        <circle class="st15" cx="366.11" cy="507.78" r=".38"/>
        <circle class="st15" cx="367.71" cy="507.78" r=".38"/>
        <circle class="st15" cx="368.48" cy="507.78" r=".38"/>
        <g>
          <rect class="st21" x="364.89" y="506" width=".75" height=".68"/>
          <rect class="st21" x="365.99" y="506" width=".75" height=".68"/>
          <rect class="st21" x="367.09" y="506" width=".75" height=".68"/>
          <rect class="st21" x="368.18" y="506" width=".75" height=".68"/>
        </g>
        <polygon class="st20" points="367.71 505.07 367.41 505.38 366.42 505.38 366.12 505.07 366.91 504.27 367.71 505.07"/>
        <line class="st19" x1="365.35" y1="507.4" x2="368.48" y2="507.4"/>
      </g>
      <g>
        <rect class="st11" x="209.61" y="502.16" width="7.8" height="11.04" rx="1.02" ry="1.02"/>
        <rect class="st21" x="210.25" y="503.58" width="6.51" height="6.51" rx=".72" ry=".72"/>
        <path class="st25" d="M215.82,506.12v1.61h-4.63v-1.61c0-.27.22-.49.49-.49h3.65c.27,0,.49.22.49.49Z"/>
        <circle class="st15" cx="211.94" cy="507.78" r=".38"/>
        <circle class="st15" cx="212.7" cy="507.78" r=".38"/>
        <circle class="st15" cx="214.3" cy="507.78" r=".38"/>
        <circle class="st15" cx="215.07" cy="507.78" r=".38"/>
        <g>
          <rect class="st21" x="211.48" y="506" width=".75" height=".68"/>
          <rect class="st21" x="212.58" y="506" width=".75" height=".68"/>
          <rect class="st21" x="213.68" y="506" width=".75" height=".68"/>
          <rect class="st21" x="214.77" y="506" width=".75" height=".68"/>
        </g>
        <polygon class="st20" points="214.3 505.07 214 505.38 213.01 505.38 212.71 505.07 213.5 504.27 214.3 505.07"/>
        <line class="st19" x1="211.94" y1="507.4" x2="215.07" y2="507.4"/>
      </g>
      <g>
        <rect class="st11" x="262.45" y="502.16" width="7.8" height="11.04" rx="1.02" ry="1.02"/>
        <rect class="st21" x="263.09" y="503.58" width="6.51" height="6.51" rx=".72" ry=".72"/>
        <path class="st25" d="M268.66,506.12v1.61h-4.63v-1.61c0-.27.22-.49.49-.49h3.65c.27,0,.49.22.49.49h0Z"/>
        <circle class="st15" cx="264.78" cy="507.78" r=".38"/>
        <circle class="st15" cx="265.55" cy="507.78" r=".38"/>
        <circle class="st15" cx="267.15" cy="507.78" r=".38"/>
        <circle class="st15" cx="267.92" cy="507.78" r=".38"/>
        <g>
          <rect class="st21" x="264.32" y="506" width=".75" height=".68"/>
          <rect class="st21" x="265.42" y="506" width=".75" height=".68"/>
          <rect class="st21" x="266.52" y="506" width=".75" height=".68"/>
          <rect class="st21" x="267.62" y="506" width=".75" height=".68"/>
        </g>
        <polygon class="st20" points="267.15 505.07 266.84 505.38 265.86 505.38 265.55 505.07 266.35 504.27 267.15 505.07"/>
        <line class="st19" x1="264.78" y1="507.4" x2="267.92" y2="507.4"/>
      </g>
      <g>
        <rect class="st11" x="289.17" y="480.71" width="7.8" height="11.04" rx="1.02" ry="1.02"/>
        <rect class="st21" x="289.81" y="482.12" width="6.51" height="6.51" rx=".72" ry=".72"/>
        <path class="st25" d="M291.44,483.86h3.25c.38,0,.69.31.69.69v1.41h-4.63v-1.41c0-.38.31-.69.69-.69Z"/>
        <circle class="st15" cx="291.63" cy="486.17" r=".54"/>
        <circle class="st15" cx="294.51" cy="486.17" r=".54"/>
        <g>
          <rect class="st21" x="291.04" y="484.23" width=".75" height=".68"/>
          <rect class="st21" x="292.14" y="484.23" width=".75" height=".68"/>
          <rect class="st21" x="293.24" y="484.23" width=".75" height=".68"/>
          <rect class="st21" x="294.34" y="484.23" width=".75" height=".68"/>
        </g>
      </g>
      <g>
        <rect class="st11" x="408.89" y="478.2" width="7.8" height="11.04" rx="1.02" ry="1.02"/>
        <rect class="st21" x="409.53" y="479.62" width="6.51" height="6.51" rx=".72" ry=".72"/>
        <path class="st25" d="M411.17,481.35h3.25c.38,0,.69.31.69.69v1.41h-4.63v-1.41c0-.38.31-.69.69-.69Z"/>
        <circle class="st15" cx="411.35" cy="483.66" r=".54"/>
        <circle class="st15" cx="414.23" cy="483.66" r=".54"/>
        <g>
          <rect class="st21" x="410.76" y="481.72" width=".75" height=".68"/>
          <rect class="st21" x="411.86" y="481.72" width=".75" height=".68"/>
          <rect class="st21" x="412.96" y="481.72" width=".75" height=".68"/>
          <rect class="st21" x="414.06" y="481.72" width=".75" height=".68"/>
        </g>
      </g>
      <g>
        <rect class="st11" x="184.2" y="478.2" width="7.8" height="11.04" rx="1.02" ry="1.02"/>
        <rect class="st21" x="184.84" y="479.62" width="6.51" height="6.51" rx=".72" ry=".72"/>
        <path class="st25" d="M186.48,481.35h3.25c.38,0,.69.31.69.69v1.41h-4.63v-1.41c0-.38.31-.69.69-.69Z"/>
        <circle class="st15" cx="186.66" cy="483.66" r=".54"/>
        <circle class="st15" cx="189.54" cy="483.66" r=".54"/>
        <g>
          <rect class="st21" x="186.07" y="481.72" width=".75" height=".68"/>
          <rect class="st21" x="187.17" y="481.72" width=".75" height=".68"/>
          <rect class="st21" x="188.27" y="481.72" width=".75" height=".68"/>
          <rect class="st21" x="189.37" y="481.72" width=".75" height=".68"/>
        </g>
      </g>
      <g>
        <rect class="st11" x="110.95" y="317.87" width="7.8" height="11.04" rx="1.02" ry="1.02"/>
        <rect class="st21" x="111.59" y="319.28" width="6.51" height="6.51" rx=".72" ry=".72"/>
        <path class="st25" d="M113.22,321.02h3.25c.38,0,.69.31.69.69v1.41h-4.63v-1.41c0-.38.31-.69.69-.69Z"/>
        <circle class="st15" cx="113.4" cy="323.32" r=".54"/>
        <circle class="st15" cx="116.29" cy="323.32" r=".54"/>
        <g>
          <rect class="st21" x="112.82" y="321.39" width=".75" height=".68"/>
          <rect class="st21" x="113.92" y="321.39" width=".75" height=".68"/>
          <rect class="st21" x="115.02" y="321.39" width=".75" height=".68"/>
          <rect class="st21" x="116.11" y="321.39" width=".75" height=".68"/>
        </g>
      </g>
      <g>
        <rect class="st11" x="146.24" y="526.3" width="7.8" height="11.04" rx="1.02" ry="1.02"/>
        <rect class="st21" x="146.88" y="527.72" width="6.51" height="6.51" rx=".72" ry=".72"/>
        <path class="st25" d="M148.51,529.45h3.25c.38,0,.69.31.69.69v1.41h-4.63v-1.41c0-.38.31-.69.69-.69Z"/>
        <circle class="st15" cx="148.7" cy="531.76" r=".54"/>
        <circle class="st15" cx="151.58" cy="531.76" r=".54"/>
        <g>
          <rect class="st21" x="148.11" y="529.82" width=".75" height=".68"/>
          <rect class="st21" x="149.21" y="529.82" width=".75" height=".68"/>
          <rect class="st21" x="150.31" y="529.82" width=".75" height=".68"/>
          <rect class="st21" x="151.41" y="529.82" width=".75" height=".68"/>
        </g>
      </g>
      <g>
        <rect class="st11" x="209.61" y="526.3" width="7.8" height="11.04" rx="1.02" ry="1.02"/>
        <rect class="st21" x="210.25" y="527.72" width="6.51" height="6.51" rx=".72" ry=".72"/>
        <path class="st25" d="M211.88,529.45h3.25c.38,0,.69.31.69.69v1.41h-4.63v-1.41c0-.38.31-.69.69-.69Z"/>
        <circle class="st15" cx="212.06" cy="531.76" r=".54"/>
        <circle class="st15" cx="214.95" cy="531.76" r=".54"/>
        <g>
          <rect class="st21" x="211.48" y="529.82" width=".75" height=".68"/>
          <rect class="st21" x="212.58" y="529.82" width=".75" height=".68"/>
          <rect class="st21" x="213.68" y="529.82" width=".75" height=".68"/>
          <rect class="st21" x="214.77" y="529.82" width=".75" height=".68"/>
        </g>
      </g>
      <g>
        <rect class="st11" x="414.83" y="526.3" width="7.8" height="11.04" rx="1.02" ry="1.02"/>
        <rect class="st21" x="415.47" y="527.72" width="6.51" height="6.51" rx=".72" ry=".72"/>
        <path class="st25" d="M417.11,529.45h3.25c.38,0,.69.31.69.69v1.41h-4.63v-1.41c0-.38.31-.69.69-.69Z"/>
        <circle class="st15" cx="417.29" cy="531.76" r=".54"/>
        <circle class="st15" cx="420.17" cy="531.76" r=".54"/>
        <g>
          <rect class="st21" x="416.7" y="529.82" width=".75" height=".68"/>
          <rect class="st21" x="417.8" y="529.82" width=".75" height=".68"/>
          <rect class="st21" x="418.9" y="529.82" width=".75" height=".68"/>
          <rect class="st21" x="420" y="529.82" width=".75" height=".68"/>
        </g>
      </g>
      <g>
        <rect class="st11" x="262.28" y="526.3" width="7.8" height="11.04" rx="1.02" ry="1.02"/>
        <rect class="st21" x="262.92" y="527.72" width="6.51" height="6.51" rx=".72" ry=".72"/>
        <path class="st25" d="M264.55,529.45h3.25c.38,0,.69.31.69.69v1.41h-4.63v-1.41c0-.38.31-.69.69-.69Z"/>
        <circle class="st15" cx="264.73" cy="531.76" r=".54"/>
        <circle class="st15" cx="267.62" cy="531.76" r=".54"/>
        <g>
          <rect class="st21" x="264.15" y="529.82" width=".75" height=".68"/>
          <rect class="st21" x="265.25" y="529.82" width=".75" height=".68"/>
          <rect class="st21" x="266.35" y="529.82" width=".75" height=".68"/>
          <rect class="st21" x="267.45" y="529.82" width=".75" height=".68"/>
        </g>
      </g>
      <rect class="st30" x="207.53" y="520.69" width="11.91" height="4.02"/>
      <rect class="st30" x="144.16" y="520.69" width="11.91" height="4.02"/>
      <polygon class="st26" points="219.44 520.69 219.44 524.7 218.83 524.7 218.83 522.18 216.32 524.68 213.52 521.88 210.7 524.71 208.18 522.19 208.18 524.71 207.57 524.71 207.57 520.7 210.7 523.84 213.52 521.01 216.32 523.81 219.44 520.69"/>
      <polygon class="st26" points="156.08 520.69 156.08 524.7 155.46 524.7 155.46 522.18 152.96 524.68 150.16 521.88 147.33 524.71 144.81 522.19 144.81 524.71 144.2 524.71 144.2 520.7 147.33 523.84 150.16 521.01 152.96 523.81 156.08 520.69"/>
      <rect class="st30" x="260.2" y="520.69" width="11.91" height="4.02"/>
      <rect class="st30" x="182.15" y="490.36" width="11.91" height="4.02"/>
      <polygon class="st26" points="287.13 498.4 287.13 494.39 287.74 494.39 287.74 496.91 290.25 494.41 293.05 497.21 295.87 494.39 298.39 496.9 298.39 494.38 299 494.38 299 498.39 295.87 495.25 293.05 498.08 290.25 495.28 287.13 498.4"/>
      <polygon class="st26" points="272.11 520.69 272.11 524.7 271.5 524.7 271.5 522.18 268.99 524.68 266.19 521.88 263.37 524.71 260.85 522.19 260.85 524.71 260.24 524.71 260.24 520.7 263.37 523.84 266.19 521.01 268.99 523.81 272.11 520.69"/>
      <polygon class="st26" points="182.14 494.38 182.14 490.37 182.76 490.37 182.76 492.9 185.26 490.39 188.06 493.19 190.88 490.37 193.4 492.89 193.4 490.37 194.02 490.37 194.02 494.37 190.88 491.24 188.06 494.06 185.26 491.26 182.14 494.38"/>
      <rect class="st30" x="412.75" y="520.69" width="11.91" height="4.02"/>
      <rect class="st30" x="406.84" y="490.36" width="11.91" height="4.02"/>
      <polygon class="st26" points="424.67 520.69 424.67 524.7 424.05 524.7 424.05 522.18 421.55 524.68 418.75 521.88 415.92 524.71 413.4 522.19 413.4 524.71 412.79 524.71 412.79 520.7 415.92 523.84 418.75 521.01 421.55 523.81 424.67 520.69"/>
      <polygon class="st26" points="406.83 494.38 406.83 490.37 407.45 490.37 407.45 492.9 409.95 490.39 412.75 493.19 415.58 490.37 418.09 492.89 418.09 490.37 418.71 490.37 418.71 494.37 415.58 491.24 412.75 494.06 409.95 491.26 406.83 494.38"/>
      <rect class="st30" x="121.27" y="317.43" width="4.02" height="11.91"/>
      <polygon class="st26" points="125.29 329.34 121.29 329.34 121.29 328.73 123.81 328.73 121.3 326.22 124.1 323.42 121.28 320.6 123.8 318.08 121.28 318.08 121.28 317.47 125.28 317.47 122.15 320.6 124.97 323.42 122.17 326.22 125.29 329.34"/>
      <g>
        <rect class="st11" x="568.07" y="246.35" width="7.8" height="11.04" rx="1.02" ry="1.02"/>
        <rect class="st21" x="568.71" y="247.77" width="6.51" height="6.51" rx=".72" ry=".72"/>
        <path class="st25" d="M570.35,249.51h3.25c.38,0,.69.31.69.69v1.41h-4.63v-1.41c0-.38.31-.69.69-.69Z"/>
        <circle class="st15" cx="570.53" cy="251.81" r=".54"/>
        <circle class="st15" cx="573.41" cy="251.81" r=".54"/>
        <g>
          <rect class="st21" x="569.95" y="249.88" width=".75" height=".68"/>
          <rect class="st21" x="571.05" y="249.88" width=".75" height=".68"/>
          <rect class="st21" x="572.14" y="249.88" width=".75" height=".68"/>
          <rect class="st21" x="573.24" y="249.88" width=".75" height=".68"/>
        </g>
      </g>
      <polygon class="st26" points="566.03 263.95 566.03 259.94 566.65 259.94 566.65 262.46 569.15 259.96 571.95 262.76 574.78 259.94 577.3 262.45 577.3 259.93 577.91 259.93 577.91 263.94 574.78 260.8 571.95 263.63 569.15 260.83 566.03 263.95"/>
      <g>
        <rect class="st11" x="568.07" y="303.46" width="7.8" height="11.04" rx="1.02" ry="1.02"/>
        <rect class="st21" x="568.71" y="304.87" width="6.51" height="6.51" rx=".72" ry=".72"/>
        <path class="st25" d="M570.35,306.61h3.25c.38,0,.69.31.69.69v1.41h-4.63v-1.41c0-.38.31-.69.69-.69Z"/>
        <circle class="st15" cx="570.53" cy="308.92" r=".54"/>
        <circle class="st15" cx="573.41" cy="308.92" r=".54"/>
        <g>
          <rect class="st21" x="569.95" y="306.98" width=".75" height=".68"/>
          <rect class="st21" x="571.05" y="306.98" width=".75" height=".68"/>
          <rect class="st21" x="572.14" y="306.98" width=".75" height=".68"/>
          <rect class="st21" x="573.24" y="306.98" width=".75" height=".68"/>
        </g>
      </g>
      <polygon class="st26" points="577.91 297.7 577.91 301.7 577.3 301.7 577.3 299.18 574.79 301.69 571.99 298.89 569.17 301.71 566.65 299.19 566.65 301.71 566.03 301.71 566.03 297.71 569.17 300.84 571.99 298.02 574.79 300.82 577.91 297.7"/>
      <g>
        <rect class="st11" x="551.09" y="274.67" width="7.8" height="11.04" rx="1.02" ry="1.02"/>
        <rect class="st21" x="551.73" y="276.09" width="6.51" height="6.51" rx=".72" ry=".72"/>
        <path class="st25" d="M557.31,278.63v1.61h-4.63v-1.61c0-.27.22-.49.49-.49h3.65c.27,0,.49.22.49.49Z"/>
        <circle class="st15" cx="553.42" cy="280.29" r=".38"/>
        <circle class="st15" cx="554.19" cy="280.29" r=".38"/>
        <circle class="st15" cx="555.79" cy="280.29" r=".38"/>
        <circle class="st15" cx="556.56" cy="280.29" r=".38"/>
        <g>
          <rect class="st21" x="552.97" y="278.51" width=".75" height=".68"/>
          <rect class="st21" x="554.07" y="278.51" width=".75" height=".68"/>
          <rect class="st21" x="555.16" y="278.51" width=".75" height=".68"/>
          <rect class="st21" x="556.26" y="278.51" width=".75" height=".68"/>
        </g>
        <polygon class="st20" points="555.79 277.58 555.48 277.89 554.5 277.89 554.19 277.58 554.99 276.78 555.79 277.58"/>
        <line class="st19" x1="553.42" y1="279.91" x2="556.56" y2="279.91"/>
      </g>
    </g>
    <g id="traffic-lights">
      <g>
        <path class="st27" d="M511.56,247.76h-11.2c-.73,0-1.33.59-1.33,1.33v3.61c0,.73.59,1.33,1.33,1.33h16.14c.73,0,1.33-.59,1.33-1.33v-3.61c0-.73-.59-1.33-1.33-1.33h-4.94Z"/>
        <circle class="st10" cx="508.43" cy="250.89" r="1.94"/>
        <circle class="st25" cx="502.17" cy="250.89" r="1.94"/>
        <path class="st27" d="M506.63,235.23c-.73,0-1.33.59-1.33,1.33v11.2h6.26v-11.2c0-.73-.59-1.33-1.33-1.33h-3.61,0Z"/>
        <circle class="st25" cx="514.7" cy="250.89" r="1.94"/>
        <circle class="st26" cx="508.43" cy="244.63" r="1.94"/>
        <circle class="st24" cx="508.43" cy="238.36" r="1.94"/>
        <polygon class="st10" points="502.39 249.94 500.73 250.89 502.39 251.85 502.39 251.27 504.04 251.27 504.04 250.52 502.39 250.52 502.39 249.94"/>
        <polygon class="st10" points="514.45 251.85 516.11 250.89 514.45 249.94 514.45 250.52 512.8 250.52 512.8 251.27 514.45 251.27 514.45 251.85"/>
      </g>
      <g>
        <path class="st27" d="M559.71,247.76h-11.2c-.73,0-1.33.59-1.33,1.33v3.61c0,.73.59,1.33,1.33,1.33h11.2v-6.26h0Z"/>
        <circle class="st10" cx="556.57" cy="250.89" r="1.94"/>
        <circle class="st25" cx="550.31" cy="250.89" r="1.94"/>
        <path class="st27" d="M554.77,235.23c-.73,0-1.33.59-1.33,1.33v11.2h6.26v-11.2c0-.73-.59-1.33-1.33-1.33h-3.61.01Z"/>
        <circle class="st26" cx="556.57" cy="244.63" r="1.94"/>
        <circle class="st24" cx="556.57" cy="238.36" r="1.94"/>
        <polygon class="st10" points="550.53 249.94 548.87 250.89 550.53 251.85 550.53 251.27 552.18 251.27 552.18 250.52 550.53 250.52 550.53 249.94"/>
      </g>
      <g>
        <path class="st27" d="M627.09,270.8c-.73,0-1.33.59-1.33,1.33v11.2h0v4.94c0,.73.59,1.33,1.33,1.33h3.61c.73,0,1.33-.59,1.33-1.33v-16.14c0-.73-.59-1.33-1.33-1.33h-3.61Z"/>
        <circle class="st10" cx="628.9" cy="286.46" r="1.94"/>
        <circle class="st26" cx="628.9" cy="280.19" r="1.94"/>
        <circle class="st24" cx="628.9" cy="273.93" r="1.94"/>
      </g>
      <g>
        <path class="st27" d="M647.62,270.8c-.73,0-1.33.59-1.33,1.33v11.2h0v4.94c0,.73.59,1.33,1.33,1.33h3.61c.73,0,1.33-.59,1.33-1.33v-16.14c0-.73-.59-1.33-1.33-1.33h-3.61Z"/>
        <circle class="st10" cx="649.42" cy="286.46" r="1.94"/>
        <circle class="st26" cx="649.42" cy="280.19" r="1.94"/>
        <circle class="st24" cx="649.42" cy="273.93" r="1.94"/>
      </g>
      <g>
        <path class="st27" d="M539.6,371.08c-.73,0-1.33.59-1.33,1.33v11.2h0v4.94c0,.73.59,1.33,1.33,1.33h3.61c.73,0,1.33-.59,1.33-1.33v-16.14c0-.73-.59-1.33-1.33-1.33h-3.61Z"/>
        <circle class="st10" cx="541.4" cy="386.74" r="1.94"/>
        <circle class="st26" cx="541.4" cy="380.47" r="1.94"/>
        <circle class="st24" cx="541.4" cy="374.21" r="1.94"/>
      </g>
      <g>
        <path class="st27" d="M481.35,388.65c-.73,0-1.33.59-1.33,1.33v11.2h0v4.94c0,.73.59,1.33,1.33,1.33h3.61c.73,0,1.33-.59,1.33-1.33v-16.14c0-.73-.59-1.33-1.33-1.33h-3.61Z"/>
        <circle class="st10" cx="483.15" cy="404.31" r="1.94"/>
        <circle class="st26" cx="483.15" cy="398.05" r="1.94"/>
        <circle class="st24" cx="483.15" cy="391.78" r="1.94"/>
      </g>
      <g>
        <path class="st27" d="M481.24,432.27c-.73,0-1.33.59-1.33,1.33v11.2h0v4.94c0,.73.59,1.33,1.33,1.33h3.61c.73,0,1.33-.59,1.33-1.33v-16.14c0-.73-.59-1.33-1.33-1.33h-3.61Z"/>
        <circle class="st10" cx="483.05" cy="447.93" r="1.94"/>
        <circle class="st26" cx="483.05" cy="441.66" r="1.94"/>
        <circle class="st24" cx="483.05" cy="435.4" r="1.94"/>
      </g>
      <g>
        <path class="st27" d="M386,473.58c-.73,0-1.33.59-1.33,1.33v11.2h0v4.94c0,.73.59,1.33,1.33,1.33h3.61c.73,0,1.33-.59,1.33-1.33v-16.14c0-.73-.59-1.33-1.33-1.33h-3.61Z"/>
        <circle class="st10" cx="387.81" cy="489.25" r="1.94"/>
        <circle class="st26" cx="387.81" cy="482.98" r="1.94"/>
        <circle class="st24" cx="387.81" cy="476.72" r="1.94"/>
      </g>
      <g>
        <path class="st27" d="M159.87,473.58c-.73,0-1.33.59-1.33,1.33v11.2h0v4.94c0,.73.59,1.33,1.33,1.33h3.61c.73,0,1.33-.59,1.33-1.33v-16.14c0-.73-.59-1.33-1.33-1.33h-3.61Z"/>
        <circle class="st10" cx="161.68" cy="489.25" r="1.94"/>
        <circle class="st26" cx="161.68" cy="482.98" r="1.94"/>
        <circle class="st24" cx="161.68" cy="476.72" r="1.94"/>
      </g>
      <g>
        <path class="st27" d="M155.86,396.56c-.73,0-1.33.59-1.33,1.33v11.2h0v4.94c0,.73.59,1.33,1.33,1.33h3.61c.73,0,1.33-.59,1.33-1.33v-16.14c0-.73-.59-1.33-1.33-1.33h-3.61Z"/>
        <circle class="st10" cx="157.67" cy="412.22" r="1.94"/>
        <circle class="st26" cx="157.67" cy="405.96" r="1.94"/>
        <circle class="st24" cx="157.67" cy="399.7" r="1.94"/>
      </g>
      <g>
        <path class="st27" d="M136.02,529.47c-.73,0-1.33.59-1.33,1.33v11.2h0v4.94c0,.73.59,1.33,1.33,1.33h3.61c.73,0,1.33-.59,1.33-1.33v-16.14c0-.73-.59-1.33-1.33-1.33h-3.61Z"/>
        <circle class="st10" cx="137.82" cy="545.13" r="1.94"/>
        <circle class="st26" cx="137.82" cy="538.86" r="1.94"/>
        <circle class="st24" cx="137.82" cy="532.6" r="1.94"/>
      </g>
      <g>
        <path class="st27" d="M117.39,287.6c-.73,0-1.33.59-1.33,1.33v11.2h0v4.94c0,.73.59,1.33,1.33,1.33h3.61c.73,0,1.33-.59,1.33-1.33v-16.14c0-.73-.59-1.33-1.33-1.33h-3.61Z"/>
        <circle class="st10" cx="119.2" cy="303.26" r="1.94"/>
        <circle class="st26" cx="119.2" cy="297" r="1.94"/>
        <circle class="st24" cx="119.2" cy="290.73" r="1.94"/>
      </g>
      <g>
        <path class="st27" d="M156.03,229.2c-.73,0-1.33.59-1.33,1.33v11.2h0v4.94c0,.73.59,1.33,1.33,1.33h3.61c.73,0,1.33-.59,1.33-1.33v-16.14c0-.73-.59-1.33-1.33-1.33h-3.61Z"/>
        <circle class="st10" cx="157.83" cy="244.86" r="1.94"/>
        <circle class="st26" cx="157.83" cy="238.6" r="1.94"/>
        <circle class="st24" cx="157.83" cy="232.33" r="1.94"/>
      </g>
      <g>
        <path class="st27" d="M526.83,432.27c-.73,0-1.33.59-1.33,1.33v11.2h0v4.94c0,.73.59,1.33,1.33,1.33h3.61c.73,0,1.33-.59,1.33-1.33v-16.14c0-.73-.59-1.33-1.33-1.33h-3.61Z"/>
        <circle class="st10" cx="528.64" cy="447.93" r="1.94"/>
        <circle class="st26" cx="528.64" cy="441.66" r="1.94"/>
        <circle class="st24" cx="528.64" cy="435.4" r="1.94"/>
      </g>
      <g>
        <rect class="st11" x="362.33" y="483.21" width="9.17" height="9.17" rx=".72" ry=".72"/>
        <path class="st21" d="M364.67,490.38v-5.18h2.24c.46,0,.86.08,1.2.23.34.15.59.37.78.65s.27.61.27,1-.09.72-.27,1-.44.49-.78.65c-.34.15-.74.23-1.2.23h-1.58l.55-.54v1.97h-1.21ZM365.88,488.55l-.55-.57h1.52c.36,0,.64-.08.83-.24.19-.16.28-.38.28-.67s-.09-.51-.28-.66c-.19-.16-.46-.23-.83-.23h-1.52l.55-.57v2.94h0Z"/>
      </g>
    </g>
    <g id="turns">
      <path id="kul-akt-l-turn" class="st21" d="M521.47,400.17h-2.88l2.39,2.39h-15.89c-2.77,0-5.02-2.25-5.02-5.02v-14.92h-2v14.92c0,3.87,3.15,7.02,7.02,7.02h15.89l-2.39,2.39h2.88l3.39-3.39-3.39-3.39Z"/>
      <path id="akt-kul-l-turn" class="st21" d="M502.46,418.09v-2.88l-2.39,2.39v-15.89c0-2.77,2.25-5.02,5.02-5.02h32v-2h-32c-3.87,0-7.02,3.15-7.02,7.02v15.89l-2.39-2.39v2.88l3.39,3.39,3.39-3.39Z"/>
      <path id="mod-akt-l-turn" class="st21" d="M620.58,399.43h2.88l-2.39-2.39h15.89c2.77,0,5.02,2.25,5.02,5.02v16.68h2v-16.68c0-3.87-3.15-7.02-7.02-7.02h-15.89l2.39-2.39h-2.88l-3.39,3.39,3.39,3.39Z"/>
      <path id="tech-kul-l-turn" class="st21" d="M502.46,321.57v-2.88l-2.39,2.39v-43.47c0-2.77,2.25-5.02,5.02-5.02h68.12v-2h-68.12c-3.87,0-7.02,3.15-7.02,7.02v43.47l-2.39-2.39v2.88l3.39,3.39,3.39-3.39Z"/>
      <path id="kul-tech-l-turn" class="st21" d="M475.29,278.41h2.88l-2.39-2.39h31.34c2.77,0,5.02,2.25,5.02,5.02v51.42h2v-51.42c0-3.87-3.15-7.02-7.02-7.02h-31.34l2.39-2.39h-2.88l-3.39,3.39,3.39,3.39h0Z"/>
      <path id="tech-mod-l-turn-1" class="st21" d="M639.51,240.1v2.88l2.39-2.39v42.14c0,2.77-2.25,5.02-5.02,5.02h-50.93v2h50.93c3.87,0,7.02-3.15,7.02-7.02v-42.14l2.39,2.39v-2.88l-3.39-3.39-3.39,3.39Z"/>
      <path id="mod-tech-l-turn-1" class="st21" d="M594.25,275.19h2.88l-2.39-2.39h42.14c2.77,0,5.02,2.25,5.02,5.02v50.93h2v-50.93c0-3.87-3.15-7.02-7.02-7.02h-42.14l2.39-2.39h-2.88l-3.39,3.39,3.39,3.39Z"/>
      <path id="tech-tul-l-turn" class="st21" d="M135.16,323.87v-2.88l-2.39,2.39v-42.14c0-2.77,2.25-5.02,5.02-5.02h50.93v-2h-50.93c-3.87,0-7.02,3.15-7.02,7.02v42.14l-2.39-2.39v2.88l3.39,3.39,3.39-3.39Z"/>
      <path id="akt-kul-r-turn" class="st21" d="M523.25,373.28v2.88l-2.39-2.39v15.89c0,2.77,2.25,5.02,5.02,5.02h11.21v2h-11.21c-3.87,0-7.02-3.15-7.02-7.02v-15.89l-2.39,2.39v-2.88l3.39-3.39,3.39,3.39Z"/>
      <path id="tul-ava-l-turn" class="st21" d="M179.59,510.61h-2.88l2.39,2.39h-41.03c-2.75,0-4.99-2.23-5.02-4.97.12-1.16,1.97-19.41,1.97-49.76h-2c0,31.1-1.95,49.42-1.97,49.6v.11c0,3.87,3.14,7.02,7.02,7.02h41.03l-2.39,2.39h2.88l3.39-3.39-3.39-3.39Z"/>
    </g>
    <g id="u-turns">
      <path id="tul-ava-uturn" class="st21" d="M147.92,471.89l-3.39-3.39-3.39,3.39v2.88l2.39-2.39v35.79c0,2.74-2.23,4.98-4.98,4.98s-4.98-2.23-4.98-4.98v-49.75h-2v49.75c0,3.85,3.13,6.98,6.98,6.98s6.98-3.13,6.98-6.98v-35.79l2.39,2.39v-2.88Z"/>
      <path id="ava-tul-uturn" class="st21" d="M177.75,517.34l3.39-3.39-3.39-3.39h-2.88l2.39,2.39h-35.79c-2.74,0-4.98-2.23-4.98-4.98s2.23-4.98,4.98-4.98h49.75v-2h-49.75c-3.85,0-6.98,3.13-6.98,6.98s3.13,6.98,6.98,6.98h35.79l-2.39,2.39h2.88,0Z"/>
      <path id="ava-uturn" class="st21" d="M328.89,517.27l3.39-3.39-3.39-3.39h-2.88l2.39,2.39h-14.72c-2.74,0-4.98-2.23-4.98-4.98s2.23-4.98,4.98-4.98h26.47v-2h-26.47c-3.85,0-6.98,3.13-6.98,6.98s3.13,6.98,6.98,6.98h14.72l-2.39,2.39h2.88Z"/>
      <path id="ava-uturn1" class="st21" d="M299.45,498.77l-3.39,3.39,3.39,3.39h2.88l-2.39-2.39h14.72c2.74,0,4.98,2.23,4.98,4.98s-2.23,4.98-4.98,4.98h-26.47v2h26.47c3.85,0,6.98-3.13,6.98-6.98s-3.13-6.98-6.98-6.98h-14.72l2.39-2.39h-2.88Z"/>
      <g id="akt-ogr-turn">
        <path class="st32" d="M548.53,395.11h-3.24l2.39-2.39h-2.88l-3.39,3.39,3.39,3.39h2.88l-2.39-2.39h3.24c8.74,0,14.41,1.12,17.58,6.87l1.75-.96c-3.63-6.58-10.08-7.91-19.33-7.91Z"/>
        <path class="st31" d="M565.75,399.76l-2.82-.59,1.85,2.83c-7.48-1.83-7.48-3.88-7.48-6.43h-2c0,4.13,1.41,6.53,9.07,8.39l-2.83,1.85,2.82.59,4.01-2.63-2.63-4.01h.01Z"/>
        <path class="st21" d="M559.7,397.01l-3.39-3.39-3.39,3.39v2.88l2.39-2.39v2.95c0,1.28-1.46,2.71-3.4,2.71h-10.5v2h10.5c2.93,0,5.4-2.16,5.4-4.71v-2.95l2.39,2.39v-2.88Z"/>
      </g>
      <g id="leb-ogr-turn">
        <path class="st32" d="M681.39,166.69h-3.24l2.39-2.39h-2.88l-3.39,3.39,3.39,3.39h2.88l-2.39-2.39h3.24c8.74,0,14.41,1.12,17.58,6.87l1.75-.96c-3.63-6.58-10.08-7.91-19.33-7.91h0Z"/>
        <path class="st31" d="M698.62,171.34l-2.82-.59,1.85,2.83c-7.48-1.83-7.48-3.88-7.48-6.43h-2c0,4.13,1.41,6.53,9.07,8.39l-2.83,1.85,2.82.59,4.01-2.63-2.63-4.01h.01Z"/>
        <path class="st21" d="M692.57,168.59l-3.39-3.39-3.39,3.39v2.88l2.39-2.39v2.95c0,1.28-1.46,2.71-3.4,2.71h-10.5v2h10.5c2.93,0,5.4-2.16,5.4-4.71v-2.95l2.39,2.39v-2.88Z"/>
      </g>
      <g id="tech-ogr-turn">
        <path class="st32" d="M590.93,234.8v3.24l-2.39-2.39v2.88l3.39,3.39,3.39-3.39v-2.88l-2.39,2.39v-3.24c0-8.74,1.12-11.25,6.87-14.42l-.96-1.75c-6.58,3.63-7.91,6.92-7.91,16.17Z"/>
        <path class="st31" d="M595.58,220.74l-.59,2.82,2.83-1.85c-1.83,7.48-3.88,7.48-6.43,7.48v2c4.13,0,6.53-1.41,8.39-9.07l1.85,2.83.59-2.82-2.63-4.01-4.01,2.63h0Z"/>
        <path class="st21" d="M592.83,226.79l-3.39,3.39,3.39,3.39h2.88l-2.39-2.39h2.95c1.28,0,2.71,1.46,2.71,3.4v7.34h2v-7.34c0-2.93-2.16-5.4-4.71-5.4h-2.95l2.39-2.39h-2.88Z"/>
      </g>
      <g id="tul-ogr-turn-1">
        <path class="st32" d="M130.02,224.56v3.24l-2.39-2.39v2.88l3.39,3.39,3.39-3.39v-2.88l-2.39,2.39v-3.24c0-8.74,1.12-14.41,6.87-17.58l-.96-1.75c-6.58,3.63-7.91,10.08-7.91,19.33h0Z"/>
        <path class="st31" d="M134.66,207.33l-.59,2.82,2.83-1.85c-1.83,7.48-3.88,7.48-6.43,7.48v2c4.13,0,6.53-1.41,8.39-9.07l1.85,2.83.59-2.82-2.63-4.01-4.01,2.63h0Z"/>
        <path class="st21" d="M131.91,213.38l-3.39,3.39,3.39,3.39h2.88l-2.39-2.39h2.95c1.28,0,2.71,1.46,2.71,3.4v10.5h2v-10.5c0-2.93-2.16-5.4-4.71-5.4h-2.95l2.39-2.39h-2.88Z"/>
      </g>
      <g id="tul-ogr-turn-2">
        <g>
          <path class="st32" d="M132.71,386.18l-.63-1.9c9.74-3.23,11.58-8.64,11.58-17.5v-4.84h2v4.84c0,9.33-2.17,15.82-12.95,19.4Z"/>
          <polygon class="st32" points="141.27 365.93 144.66 362.53 148.05 365.93 148.05 363.05 144.66 359.66 141.27 363.05 141.27 365.93"/>
        </g>
        <g>
          <path class="st31" d="M133.6,384.79l-1.89-.66c3.44-9.8,7.92-10.56,13.87-10.56v2c-5.42,0-8.9.45-11.98,9.22Z"/>
          <polygon class="st31" points="130.8 379.6 132.89 383.92 137.21 381.82 136.27 384.54 131.95 386.63 129.86 382.32 130.8 379.6"/>
        </g>
        <g>
          <path class="st21" d="M146.52,375.56h-9.05c-3.88,0-7.16-2.47-7.16-5.4v-10.5h2v10.5c0,1.78,2.46,3.4,5.16,3.4h9.05v2Z"/>
          <polygon class="st21" points="142.53 371.17 145.93 374.56 142.53 377.95 145.41 377.95 148.8 374.56 145.41 371.17 142.53 371.17"/>
        </g>
      </g>
      <path id="tech-uturn" class="st21" d="M272.42,274.93h21.35v-2h-21.35c-6.94,0-12.59,5.65-12.59,12.59s5.65,12.59,12.59,12.59h10.78l-2.39,2.39h2.88l3.39-3.39-3.39-3.39h-2.88l2.39,2.39h-10.78c-5.84,0-10.59-4.75-10.59-10.59s4.75-10.59,10.59-10.59Z"/>
      <path id="tech-kul-uturn-1" class="st21" d="M485.41,286.45h-21.35v2h21.35c6.94,0,12.59-5.65,12.59-12.59s-5.65-12.59-12.59-12.59h-10.78l2.39-2.39h-2.88l-3.39,3.39,3.39,3.39h2.88l-2.39-2.39h10.78c5.84,0,10.59,4.75,10.59,10.59s-4.75,10.59-10.59,10.59Z"/>
      <path id="akt-mod-uturn" class="st21" d="M640.36,395.04h-25.62l2.39-2.39h-2.88l-3.39,3.39,3.39,3.39h2.88l-2.39-2.39h25.62c1.39,0,2.52,1.13,2.52,2.52s-1.13,2.52-2.52,2.52h-29.28v2h29.28c2.49,0,4.52-2.03,4.52-4.52s-2.03-4.52-4.52-4.52Z"/>
      <g id="mod-pril-turn">
        <g>
          <path class="st32" d="M636.9,226.58h-2v-2.03c0-9.31.22-17.5.22-17.58l2,.05c0,.08-.22,8.24-.22,17.52v2.03h0Z"/>
          <polygon class="st32" points="639.29 222.6 635.9 225.99 632.51 222.6 632.51 225.48 635.9 228.87 639.29 225.48 639.29 222.6"/>
        </g>
        <g>
          <path class="st31" d="M626.01,218.33v-2c3.8,0,7.93-.66,8.75-8.51l1.99.21c-1.08,10.31-7.85,10.31-10.74,10.31h0Z"/>
          <polygon class="st31" points="638.85 212.12 635.7 208.5 632.09 211.66 632.28 208.79 635.9 205.63 639.05 209.25 638.85 212.12"/>
        </g>
        <g>
          <path class="st21" d="M643.9,228.87h-2v-7.14c0-1.95-1.43-3.4-2.71-3.4h-12.81v-2h12.81c2.55,0,4.71,2.47,4.71,5.4v7.14Z"/>
          <polygon class="st21" points="630.36 220.72 626.97 217.33 630.36 213.94 627.48 213.94 624.09 217.33 627.48 220.72 630.36 220.72"/>
        </g>
      </g>
      <path id="tul-pril-turn" class="st21" d="M151.4,340.23c-3.58,0-6.49-2.91-6.49-6.49v-9.73l2.39,2.39v-2.88l-3.39-3.39-3.39,3.39v2.88l2.39-2.39v9.73c0,4.68,3.81,8.49,8.49,8.49,2.74,0,4.98,2.23,4.98,4.98s-2.23,4.98-4.98,4.98h-13.47c-2.74,0-4.98-2.23-4.98-4.98v-11.74h-2v11.74c0,3.85,3.13,6.98,6.98,6.98h13.47c3.85,0,6.98-3.13,6.98-6.98s-3.13-6.98-6.98-6.98Z"/>
      <path id="tech-uturn-tram" class="st21" d="M803.12,262.68h-11.89l2.39-2.39h-2.88l-3.39,3.39,3.39,3.39h2.88l-2.39-2.39h11.89c6.32,0,11.46,5.14,11.46,11.46s-5.14,11.46-11.46,11.46h-22.97v2h22.97c7.42,0,13.46-6.04,13.46-13.46s-6.04-13.46-13.46-13.46Z"/>
      <path id="kul-tech-uturn" class="st21" d="M506.07,296.39c-4.45,0-8.06,3.62-8.06,8.06v18.6l-2.39-2.39v2.88l3.39,3.39,3.39-3.39v-2.88l-2.39,2.39v-18.6c0-3.34,2.72-6.06,6.06-6.06s6.06,2.72,6.06,6.06v27.55h2v-27.55c0-4.45-3.62-8.06-8.06-8.06Z"/>
      <path id="kul-akt-uturn" class="st21" d="M506.14,405.32c4.45,0,8.06-3.62,8.06-8.06v-14.2l2.39,2.39v-2.88l-3.39-3.39-3.39,3.39v2.88l2.39-2.39v14.2c0,3.34-2.72,6.06-6.06,6.06s-6.06-2.72-6.06-6.06v-19.59h-2v19.59c0,4.45,3.62,8.06,8.06,8.06Z"/>
      <path id="tech-pril-turn" class="st21" d="M330.61,292.87h-2.88l2.39,2.39h-13.61c-3.27,0-5.93,2.66-5.93,5.93v2.36c0,1.16-.94,2.1-2.1,2.1s-2.1-.94-2.1-2.1v-20.48c0-4.51,3.67-8.18,8.18-8.18h10.75v-2h-10.75c-5.61,0-10.18,4.57-10.18,10.18v20.48c0,2.26,1.84,4.1,4.1,4.1s4.1-1.84,4.1-4.1v-2.36c0-2.17,1.76-3.93,3.93-3.93h13.61l-2.39,2.39h2.88l3.39-3.39-3.39-3.39Z"/>
    </g>
    <g id="max">
      <polygon id="tech-max" class="st21" points="439.17 266.14 439.17 264.14 399.46 264.14 401.85 261.75 398.97 261.75 395.58 265.14 398.97 268.53 401.85 268.53 399.46 266.14 439.17 266.14"/>
      <path id="ava-stop-park" class="st21" d="M333.58,485.64v2.88l-2.39-2.39v4.52c0,2.77,2.25,5.02,5.02,5.02h11.21v2h-11.21c-3.87,0-7.02-3.15-7.02-7.02v-4.52l-2.39,2.39v-2.88l3.39-3.39,3.39,3.39Z"/>
      <path id="tech-kul-straight" class="st21" d="M528.95,294.78h-2.88l2.39,2.39h-12.35c-5.6,0-8.74-1.19-11.78-2.35-2.89-1.1-5.63-2.14-10.07-2.14h-14.05v2h14.05c4.08,0,6.65.97,9.36,2.01,3.06,1.16,6.53,2.48,12.49,2.48h12.35l-2.39,2.39h2.88l3.39-3.39-3.39-3.39Z"/>
      <path id="tech-stop" class="st21" d="M255.72,294.93h-2.88l-1.97,1.97-1.97-1.97h-2.88l2.39,2.39h-7.58c-.69,0-1.24-.56-1.24-1.24,0-1.79-1.45-3.24-3.24-3.24h-7.64c-.69,0-1.24-.56-1.24-1.24v-3.85c0-1.79-1.45-3.24-3.24-3.24h-8.67v2h8.67c.68,0,1.24.56,1.24,1.24v3.85c0,1.79,1.45,3.24,3.24,3.24h7.64c.69,0,1.24.56,1.24,1.24,0,1.79,1.45,3.24,3.24,3.24h7.58l-2.39,2.39h2.88l1.97-1.97,1.97,1.97h2.88l-3.39-3.39,3.39-3.39Z"/>
      <path id="ava-stop" class="st21" d="M337.45,512.83h7.64c1.79,0,3.24,1.45,3.24,3.24,0,.68.56,1.24,1.24,1.24h5.08l-2.39-2.39h2.88l1.97,1.97,1.97-1.97h2.88l-3.39,3.39,3.39,3.39h-2.88l-1.97-1.97-1.97,1.97h-2.88l2.39-2.39h-5.08c-1.79,0-3.24-1.45-3.24-3.24,0-.69-.56-1.24-1.24-1.24h-7.64v-2Z"/>
    </g>
  </g>
</svg>