<?xml version="1.0" encoding="UTF-8"?>
<svg id="Layer_1" xmlns="http://www.w3.org/2000/svg" version="1.1" viewBox="0 0 10.06 10.06">
  <!-- Generator: Adobe Illustrator 29.8.1, SVG Export Plug-In . SVG Version: 2.1.1 Build 2)  -->
  <defs>
    <style>
      .st0 {
        fill: #ce2929;
      }
    </style>
  </defs>
  <polygon class="st0" points="4.51 4.76 3.81 4.76 3.81 5.36 2.95 5.36 4.35 3.43 3.57 3.43 2.05 5.47 2.05 5.97 3.78 5.97 3.78 6.64 4.51 6.64 4.51 5.97 5.03 5.97 5.03 5.36 4.51 5.36 4.51 4.76"/>
  <path class="st0" d="M7.33,3.57c-.21-.13-.44-.2-.71-.2s-.5.07-.7.2-.37.32-.49.56c-.12.25-.18.55-.18.9s.06.65.18.9.28.43.49.56.44.19.7.19.5-.06.71-.19.37-.32.49-.56.18-.55.18-.9-.06-.66-.18-.9c-.12-.25-.28-.43-.49-.56ZM7.17,5.63c-.05.15-.13.27-.22.34s-.2.11-.33.11-.23-.04-.32-.11-.17-.18-.22-.34c-.05-.15-.08-.35-.08-.59s.03-.44.08-.59c.06-.15.13-.26.22-.34.09-.07.2-.11.32-.11s.23.04.33.11c.09.07.17.18.22.34s.08.35.08.59-.03.44-.08.59Z"/>
  <path class="st0" d="M5.03,0C2.25,0,0,2.26,0,5.03s2.26,5.03,5.03,5.03,5.03-2.26,5.03-5.03S7.8,0,5.03,0ZM5.03,9.3c-2.35,0-4.27-1.91-4.27-4.27S2.67.76,5.03.76s4.27,1.91,4.27,4.27-1.91,4.27-4.27,4.27Z"/>
</svg>